<svg width="40" height="36" viewBox="0 0 40 36" fill="none" xmlns="http://www.w3.org/2000/svg">
<path d="M3.77734 5.47852C5.49174 3.08175 8.12593 1.99951 10.917 2.375C13.2446 2.68814 14.4704 3.60409 15.2852 4.65332C16.2044 5.83712 16.7005 7.29188 17.3301 9.05273C18.2605 11.6552 21.4074 12.1475 23.2305 10.4404C24.9885 8.79428 26.5448 7.51639 28.2939 7.02539C29.8383 6.59196 31.8962 6.68556 34.8711 8.69727C36.8423 10.3443 37.8067 13.0389 37.5479 16.1504V16.1514C37.2696 19.5101 35.033 22.8751 31.6924 25.8828C28.396 28.8508 24.3301 31.1882 21.0684 32.5186C17.7251 33.882 14.4743 33.2804 11.833 30.7471C8.53356 27.582 5.79137 23.8244 4.03027 19.5713C3.11515 17.3599 2.43057 14.5995 2.31836 11.9541C2.20456 9.26972 2.68871 6.99884 3.77637 5.47852H3.77734Z" fill="#FFA400" stroke="#FFA400" stroke-width="4.60504"/>
</svg>
