<svg width="54" height="60" viewBox="0 0 54 60" fill="none" xmlns="http://www.w3.org/2000/svg">
<path fill-rule="evenodd" clip-rule="evenodd" d="M18.3663 44.6631C18.367 44.6635 18.3677 44.6639 18.3684 44.6643L18.3663 44.6631Z" fill="white"/>
<path d="M18.3684 44.6643L18.3663 44.6631C17.9889 44.4339 17.4365 44.0984 16.8348 43.5375C16.727 43.6985 16.5876 43.8562 16.4078 43.9957C16.0502 44.2731 15.6595 44.3802 15.337 44.412C15.0123 44.4438 14.6409 44.4076 14.2756 44.2387C13.9102 44.0697 13.6509 43.8146 13.4767 43.5646C13.4447 43.5187 13.4155 43.472 13.3882 43.4255C13.1744 43.4978 12.9586 43.5651 12.7384 43.6298C11.9108 43.8731 11.1374 44.1769 10.2419 44.5287C9.12665 44.9664 8.11298 45.5239 7.07423 46.2276C6.40255 46.6829 5.94139 47.0635 5.57171 47.5725L3.92714 49.8374C3.92252 49.8438 3.91733 49.8503 3.91244 49.8565L3.90689 49.8635L3.90303 49.8685C3.89421 49.8801 3.88531 49.8916 3.87636 49.9028C3.87224 49.908 3.86829 49.9132 3.86411 49.9183C3.67582 50.151 3.46325 50.3071 3.32534 50.396C3.19888 50.4775 2.90507 50.6534 2.52696 50.7141L2.51945 50.7153C1.93888 50.8056 1.47773 50.576 1.36113 50.518C1.16518 50.4205 0.990928 50.3001 0.856505 50.1875C0.519608 49.9054 0.201542 49.4796 0.0893417 48.9186C-0.0293835 48.3249 0.116255 47.739 0.447931 47.2684L1.96151 45.1219C2.48712 44.3758 3.17958 43.4978 4.13715 42.8522C6.17887 41.4764 8.04684 40.6037 10.2513 39.8301L10.6969 39.6766C11.0638 39.5523 11.4019 39.4436 11.7232 39.3402C12.2642 39.1661 12.7583 39.0072 13.2657 38.8142C13.4266 38.4454 13.6798 38.1695 13.9088 37.9908C14.0265 37.8988 14.1732 37.8054 14.3436 37.7274C14.2537 37.6132 14.1669 37.494 14.0866 37.3708C11.9098 34.0345 10.5749 29.355 11.8837 25.1011C11.9452 24.9016 12.0354 24.7154 12.148 24.5483C12.0107 24.2503 11.9007 23.9296 11.8234 23.5859C11.612 22.6469 11.6787 21.6931 11.7389 20.9885C11.5202 20.6735 11.4253 20.3474 11.3813 20.1297C11.3166 19.8102 11.3106 19.4776 11.3544 19.1647C11.3971 18.8594 11.5006 18.4798 11.7329 18.1214C11.9759 17.7465 12.4057 17.3375 13.0559 17.2044C13.1694 17.1813 13.287 17.1601 13.4061 17.1402C13.4152 16.8281 13.4896 16.312 13.8532 15.8568C13.6627 15.4652 13.627 15.0807 13.6243 14.8261C13.6179 14.2438 13.7854 13.632 13.9236 13.1954C14.0701 12.7325 14.2525 12.2639 14.3904 11.9094L14.4015 11.8809C14.475 11.692 14.532 11.5451 14.5746 11.4269L14.576 11.4228L14.5754 11.4205C14.5672 11.3842 14.5549 11.3306 14.5358 11.239C14.463 10.8892 14.3548 10.2528 14.6257 9.5085L16.98 3.03611C17.4813 1.65746 18.593 0.926339 19.6541 0.587829C21.1098 0.123394 22.5541 0.0616593 23.825 0.013493C26.61 -0.0914856 29.2964 0.41502 31.8752 1.57094C34.7823 2.87404 37.4827 4.75341 39.7217 7.08886C40.7153 8.12515 41.1253 9.42721 40.8304 10.8739L39.4249 17.7653C39.4159 17.8094 39.4058 17.8525 39.3967 17.8908C39.8825 19.32 39.8745 20.8943 39.674 22.2842C40.3277 22.7073 40.8213 23.3336 41.1301 24.0427C41.715 25.385 41.695 26.8809 41.24 28.1992C40.8175 29.4217 40.2327 30.5986 39.465 31.6632C38.926 32.4102 38.1197 33.1703 37.1608 33.6502C36.7714 33.845 36.3269 34.006 35.8497 34.0894C36.2105 34.3937 36.5103 34.7976 36.7056 35.3088L36.7305 35.3761C36.9135 35.8894 37.0571 36.394 37.1827 36.8848L37.2115 36.8942C37.24 36.9035 37.2675 36.9125 37.2937 36.9215C37.3147 36.9287 37.3347 36.9356 37.3537 36.9422C37.3933 36.956 37.429 36.9685 37.4616 36.98L37.5176 36.9999C37.6443 37.0447 37.7216 37.0721 37.8232 37.0991L38.2067 37.2034C40.1179 37.7343 41.931 38.4063 43.7355 39.1722C45.1409 39.7689 46.4102 40.4379 47.6989 41.209C47.7995 41.2691 47.9024 41.3302 48.0075 41.3925C48.9942 41.9778 50.1619 42.6705 51.1637 43.7017L51.2127 43.7537C51.7062 44.2952 51.8222 44.9649 51.7973 45.4548C51.7717 45.9591 51.5837 46.5864 51.0884 47.065C50.5697 47.5661 49.9199 47.6874 49.3945 47.6191C48.907 47.5557 48.492 47.3341 48.1905 47.0709C47.6528 46.6007 47.2179 46.2395 46.7306 45.9433C46.4141 45.7512 46.1158 45.5657 45.8281 45.3868C45.0329 44.8923 44.3182 44.4477 43.519 44.0512C41.6423 43.1201 39.7248 42.3559 37.7264 41.6905L36.6738 41.34C36.6134 41.4945 36.5297 41.6504 36.4161 41.8031C34.1987 44.7827 31.177 47.0047 27.8094 48.2755C27.1043 48.5408 26.4618 48.3472 26.0767 48.133C25.9888 48.0841 25.8983 48.0257 25.809 47.9576C25.5098 48.2714 25.1293 48.5313 24.6591 48.6973C23.1335 49.2363 21.25 49.5325 19.4575 49.7005C19.741 50.1268 19.9018 50.6359 19.9018 51.1608L19.9011 51.2238C19.8687 52.5467 18.8231 53.7527 17.3615 53.7527C16.8157 53.7527 16.328 53.5842 15.9293 53.3046L15.2066 56.814C15.1355 57.1609 14.984 57.4419 14.8575 57.6294C14.7436 57.7982 14.5311 58.0684 14.2041 58.2681L14.1946 58.2739C13.7389 58.5479 13.2599 58.5698 12.9644 58.5443C12.6843 58.5202 12.0846 58.4113 11.6316 57.8841C11.2975 57.4954 10.8592 56.7211 11.0479 55.7967L12.5704 48.3879L12.6003 48.2537C12.7604 47.5846 13.0856 46.9512 13.6116 46.4549C14.145 45.9516 14.8115 45.6596 15.5278 45.5747L15.6719 45.5605L18.8407 45.3074C18.8213 45.2025 18.8057 45.1103 18.7935 45.0381C18.7859 44.9928 18.7796 44.9554 18.7745 44.9278C18.7395 44.9006 18.6673 44.8485 18.5234 44.7591C18.4822 44.7335 18.4377 44.7064 18.3904 44.6777L18.3684 44.6643Z" fill="white"/>
<path d="M52.9286 45.7864C53.8754 47.2736 54.3334 49.1782 53.4339 50.6946C50.6782 55.3398 40.0236 59.1767 27.1448 59.7648C12.1368 61.1269 0.260998 54.0402 0 48.3249C0.790703 44.5222 11.0389 39.7604 26.1996 39.068C39.8381 38.4452 48.817 39.3283 52.9286 45.7864Z" fill="white"/>
<path fill-rule="evenodd" clip-rule="evenodd" d="M23.8859 1.63071C26.4266 1.53493 28.8652 1.99525 31.2131 3.04768C33.9347 4.26762 36.462 6.02738 38.5533 8.2088C39.1932 8.87628 39.4294 9.64377 39.2446 10.5504L37.839 17.4416C37.7712 17.773 37.669 17.8899 37.8013 18.2357C38.3946 19.7845 38.2189 21.734 37.8185 23.3395C38.6587 23.3763 39.2988 23.8913 39.6462 24.6889C40.0484 25.6118 40.0506 26.6842 39.71 27.671C39.333 28.762 38.8173 29.794 38.1522 30.7164C37.3302 31.8556 35.694 33.0007 34.2662 32.3345L33.714 34.9833C34.3757 34.9532 34.9725 35.2665 35.2064 35.9207C35.4466 36.5943 35.6142 37.2612 35.7814 37.9654C35.8162 38.1124 35.968 38.271 36.1129 38.2884C36.5823 38.3445 36.9588 38.5437 37.4072 38.663C39.3666 39.1841 41.2269 39.8654 43.1031 40.6618C44.4271 41.2239 45.6295 41.8566 46.868 42.5976C47.9804 43.2633 49.0757 43.8747 50.0032 44.8296C50.2679 45.1019 50.2252 45.6484 49.9639 45.9008C49.7563 46.1014 49.4459 46.0182 49.2548 45.8514C48.7112 45.3761 48.187 44.9344 47.5703 44.5597C46.4586 43.885 45.4089 43.1819 44.2383 42.6012C42.2834 41.6313 40.2948 40.8396 38.2377 40.1547L35.8197 39.3498C35.4118 39.2142 35.013 39.2227 34.8715 38.6577L34.4128 36.828C34.3603 36.619 34.2708 36.4226 34.1504 36.2359C33.8977 36.9654 33.5406 37.5419 33.0369 38.1021C31.2235 40.1166 29.0096 41.5974 26.5795 42.6438C25.9469 42.9161 25.5094 43.3844 25.3439 44.0675C25.2053 44.6428 25.1049 45.2139 25.0662 45.8121C25.0274 46.4103 24.7026 46.9657 24.1202 47.1712C21.7876 47.9953 18.3855 48.2111 15.9058 48.2876C15.5447 48.2985 15.3033 48.5672 15.2252 48.9244L14.4426 52.5113L14.4408 52.5089L13.6211 56.4891C13.5892 56.6451 13.4592 56.8264 13.3605 56.8867C13.2373 56.9607 12.9647 56.9518 12.8591 56.829C12.7062 56.6513 12.5824 56.3717 12.6337 56.1205L14.1558 48.7134C14.3406 47.8134 14.9338 47.2424 15.7997 47.1737L20.1471 46.8266C21.3433 46.7314 22.4694 46.4888 23.616 46.1574C23.8259 46.0966 23.9475 45.9068 23.9669 45.6815C24.118 43.9043 24.3565 42.3735 26.073 41.5849C28.628 40.4107 30.9617 38.9432 32.7643 36.6618C32.325 35.316 33.03 32.9333 33.3752 31.573C33.4522 31.2688 33.3405 30.9391 33.6674 30.809C33.9679 30.6898 34.1464 30.8604 34.3883 31.0827C34.7882 31.4501 35.434 31.3464 35.9046 31.1151C36.7352 30.706 37.3183 29.9982 37.7837 29.1759C38.4146 28.0614 39.184 26.6005 38.7008 25.3174C38.4698 24.7041 37.9269 24.4197 37.2983 24.5871C35.5636 25.0504 35.4219 26.4686 34.7117 26.1144C34.1476 25.833 34.5537 25.1528 34.5754 24.7859L32.6011 23.9865C32.3518 23.8859 32.345 23.4737 32.4414 23.2719C32.5305 23.0858 32.8727 22.9141 33.1146 23.0147L34.8265 23.7287C35.0364 22.7455 35.1603 21.7996 35.081 20.8201C35.0114 19.9851 34.673 19.2905 34.2982 18.5694C33.6491 17.3199 33.2789 15.976 33.4585 14.5235C29.2144 11.3565 23.6833 9.33415 18.478 10.3384C17.7245 11.0993 17.1842 11.9914 16.7222 12.9649C15.9966 14.4951 16.3496 15.465 15.6109 15.3626C14.5597 15.2167 16.0809 12.2716 16.1996 11.6402C16.2892 11.1613 15.9162 10.695 16.1467 10.0618L18.5009 3.58922C18.781 2.81873 19.4039 2.36633 20.1461 2.12958C21.364 1.74102 22.5984 1.67951 23.8859 1.63071ZM37.2669 15.6169C33.2452 10.9757 26.2897 7.61838 20.3069 8.18766C19.3828 8.27562 18.4853 8.41706 17.6553 8.83213C17.4009 8.95928 17.402 9.46837 17.3011 9.68583C20.0323 8.65086 23.7842 9.06051 26.5104 9.87017C30.3272 11.0033 34.3523 13.4631 37.0808 16.5662C37.1766 16.2572 37.2401 15.9602 37.2669 15.6169ZM35.4552 10.7262C34.7627 10.5786 34.1009 10.8353 33.7136 11.4244C34.8799 12.2237 35.8997 13.0856 36.9205 14.0938C36.9422 13.3684 36.9473 12.6801 36.754 12.013C36.5606 11.3456 36.0062 10.8437 35.4552 10.7262ZM24.2292 2.63437C22.9555 2.65425 21.741 2.73981 20.5197 3.06211C19.2955 3.385 19.223 4.25549 18.7935 5.50249C19.6086 4.84589 20.4688 4.52729 21.4425 4.61402C22.3963 4.69896 23.1237 5.35564 23.438 6.35026C24.7876 4.92492 26.8777 4.86702 28.2668 6.2092C28.6518 6.58148 28.8401 7.07789 29.0266 7.6074V7.60937C30.0295 6.88043 31.1853 6.80979 32.2036 7.41042C33.126 7.95502 33.6752 8.96955 33.6798 10.2124C35.0038 9.33763 36.5515 9.81537 37.3364 11.1684C37.6593 11.725 37.6856 12.336 37.8191 13.0228C38.0564 12.0101 38.244 11.0528 38.3883 10.0365C38.4482 9.61481 38.1749 9.22689 37.8805 8.92025C35.7334 6.68041 33.1254 4.93078 30.3018 3.76447C28.344 2.956 26.3234 2.60184 24.2292 2.63437ZM31.3963 8.01894C30.2098 7.55813 28.8174 8.72611 29.1602 8.89121C30.3958 9.48521 31.6018 10.0347 32.766 10.795C32.9651 9.4359 32.5201 8.4557 31.3963 8.01894ZM27.0411 6.41763C25.8831 5.84411 24.4551 6.21169 23.7414 7.428C25.3022 7.63885 26.7495 8.02008 28.2178 8.54961V8.5502C28.3016 7.56709 27.8208 6.77548 27.0411 6.41763ZM22.4432 6.21097C21.741 5.05432 20.126 5.47129 19.2584 6.30265C18.798 6.74363 18.373 7.18816 18.0763 7.78758C19.6485 7.36949 21.2145 7.23523 22.8546 7.34186L22.8549 7.34246C22.7443 6.89605 22.6086 6.56521 22.4432 6.21097Z" fill="#001043"/>
<path d="M17.3615 50.1869C17.8706 50.1869 18.2834 50.6228 18.2834 51.1605C18.2834 51.6981 17.8706 52.1339 17.3615 52.1339C16.8524 52.1339 16.4397 51.6981 16.4397 51.1605C16.4397 50.6228 16.8524 50.1869 17.3615 50.1869Z" fill="#001043"/>
<path d="M15.2323 39.1619C15.4639 39.1962 15.6357 39.4564 15.5877 39.7396C15.3014 41.4456 15.9852 42.7215 15.1782 42.8011C14.472 42.8704 14.7115 41.6215 14.5347 41.1787C13.7657 41.5847 13.0715 41.8451 12.282 42.077C11.3744 42.3439 10.5347 42.6746 9.64997 43.0222C8.40358 43.5114 7.28484 44.13 6.16622 44.8878C5.43835 45.3812 4.79541 45.8868 4.26205 46.6211L2.61747 48.8863H2.61688C2.53987 48.9923 2.36067 49.1014 2.27054 49.1158C2.16615 49.1321 1.995 49.0297 1.89575 48.9465C1.66475 48.7531 1.58322 48.467 1.77089 48.2007L3.28427 46.0543C3.77999 45.3507 4.33507 44.6705 5.04185 44.194C7.07491 42.8241 8.91798 41.9872 11.2157 41.2095C12.226 40.8673 13.2061 40.589 14.1895 40.1902C14.5033 40.0631 14.6807 40.0124 14.7206 39.5732C14.7423 39.3347 15.0195 39.1299 15.2323 39.1619Z" fill="#001043"/>
<path d="M34.2996 40.2149C34.4804 40.0047 34.7572 39.9443 34.9551 40.0871C35.1188 40.2058 35.2957 40.5975 35.1177 40.8367C33.0903 43.5609 30.3242 45.5965 27.238 46.761C26.9836 46.8568 26.6962 46.6483 26.6283 46.4706C26.5416 46.2453 26.6009 45.9369 26.869 45.817H26.8684C28.1598 45.2399 29.3709 44.6356 30.5118 43.7994C31.923 42.7651 33.1536 41.5505 34.2996 40.2149Z" fill="#001043"/>
<path d="M16.1429 38.7744C16.342 38.5046 16.9461 38.7558 17.1503 39.2721C17.7071 40.6788 18.7077 41.7294 20.002 42.4119C20.666 42.7619 21.1474 43.303 21.326 44.0705C21.4834 44.7458 21.9243 45.97 21.31 46.1598H21.3105C20.5947 46.3809 20.4948 45.3181 20.3642 44.6229C20.1206 43.3241 18.9272 43.5216 17.5091 41.9118C16.8001 41.107 16.2747 40.1968 16.0921 39.1166C16.0745 39.0106 16.095 38.8395 16.1429 38.7744Z" fill="#001043"/>
<path d="M13.4305 25.5768C13.5018 25.3455 13.7203 25.2245 13.921 25.2654C14.0865 25.2991 14.2925 25.6065 14.2486 25.848C13.9702 27.3884 13.9103 28.8987 14.1903 30.4698C14.487 32.1373 15.0455 33.7036 15.8367 35.1723C16.4282 36.27 17.3769 36.9303 18.427 37.4604C18.9387 37.7188 19.3466 38.125 19.9114 38.2985C20.7117 38.5443 21.5133 38.6087 22.3444 38.6419C23.0974 38.672 23.7374 38.4039 24.4487 38.2659C25.1869 38.1225 25.8554 38.063 26.5627 37.6961C27.739 37.0858 28.8292 36.3345 29.8189 35.411L29.8177 35.4116C30.0088 35.2333 30.2627 35.205 30.4213 35.3616C30.5633 35.502 30.6558 35.8592 30.4841 36.0598C29.3404 37.3918 27.8595 38.3509 26.2725 39.0094C25.6964 39.2485 25.107 39.2003 24.5428 39.3792C23.2433 39.7919 21.9626 39.9046 20.609 39.6661C19.5856 39.4859 18.7327 39.0732 17.9147 38.4087C17.5314 38.0973 16.9428 38.0737 16.5675 37.7099C16.1921 37.3461 15.7534 36.9641 15.4425 36.487C13.4368 33.4134 12.3056 29.233 13.4305 25.5768Z" fill="#001043"/>
<path d="M18.4881 31.4298C18.6101 31.284 18.8795 31.2297 19.062 31.3496H19.0626C21.6609 33.0592 23.4315 31.4347 23.617 32.4014C23.6541 32.593 23.5599 32.8739 23.3232 32.9679C20.6553 34.0245 17.7495 32.3118 18.4881 31.4298Z" fill="#001043"/>
<path fill-rule="evenodd" clip-rule="evenodd" d="M13.3803 18.7899C15.4944 18.3585 19.0973 18.5514 20.7949 19.9322C21.0824 20.1659 21.245 20.3019 21.6357 20.2122C22.4937 20.0152 23.3767 20.2725 24.1439 20.758C26.4747 19.7682 30.1936 20.923 32.2227 22.3785C32.6545 23.9296 31.7859 23.798 31.7019 24.1412C31.2553 25.9666 30.1725 27.5981 28.2581 27.7336C26.209 27.8788 24.088 26.8415 23.6271 24.5378C23.4753 23.7799 23.4954 23.0287 23.5998 22.257C23.6996 21.5184 22.371 21.3533 21.812 21.4063C21.5239 21.4334 21.1269 21.8527 21.3426 22.125C21.5582 22.3973 21.727 22.5667 21.5599 22.9685C21.1389 23.9787 20.4989 24.839 19.8195 25.6902C19.5297 26.054 19.3437 26.6209 19.5221 27.0655C19.796 27.7486 20.6762 28.6054 21.4378 28.3524C21.5347 28.3199 21.5262 28.0283 21.6352 27.9253V27.9265C22.132 27.4554 23.022 27.6655 23.4447 28.1408C23.5531 28.2625 23.6146 28.5113 23.7549 28.5583C24.2723 28.7318 24.7235 28.9687 25.1177 29.3585C25.7937 30.0272 26.7293 30.1235 27.5233 29.6163C27.6562 29.5313 27.9038 29.6597 27.9574 29.7724C28.0161 29.8953 28.0931 30.2102 28.0003 30.3572C27.1708 31.6681 25.601 32.1862 24.1891 31.7265L23.2353 31.4163C22.237 31.0916 21.5981 30.9904 20.8502 30.0584C20.3254 30.4741 19.7601 30.5591 19.1298 30.5711C18.5274 30.5826 17.9369 30.6567 17.3317 30.5188C15.8211 30.1742 14.8708 28.4252 15.4988 27.9715C15.6682 27.8493 15.8924 27.9193 16.0589 28.0717C16.3424 28.4693 16.8171 28.5065 17.254 28.3451C17.7498 28.0897 18.2284 27.9041 18.8103 27.7819C18.3488 27.1011 18.4326 26.3643 18.7822 25.5938C16.8558 26.4636 13.9341 25.5968 13.4024 23.2304C13.2187 22.4148 13.3175 21.5762 13.3831 20.7527C13.4059 20.469 13.3288 20.334 13.1104 20.1165C12.8366 19.8436 12.8857 18.8911 13.3803 18.7899ZM26.3207 22.0642C26.2049 22.001 25.9244 22.0395 25.8485 22.1883C25.6323 22.61 24.7755 24.5039 25.3625 24.7268C25.4629 24.7648 25.7002 24.6714 25.7561 24.5178L26.4782 22.5358C26.5375 22.3731 26.4365 22.1274 26.3207 22.0642ZM15.9534 20.305C15.8268 20.2587 15.6027 20.3304 15.5314 20.4949C15.3357 20.9492 14.5611 22.789 15.1053 23.0161C15.2114 23.06 15.4641 22.9684 15.5206 22.798L15.52 22.7974L16.1891 20.7628C16.241 20.6043 16.0686 20.3472 15.9534 20.305Z" fill="#001043"/>
<path d="M37.0312 26.1157C37.3038 26.0333 37.5862 26.1183 37.6928 26.355C37.7995 26.5918 37.763 26.9622 37.4795 27.0574H37.4789C36.2062 27.4845 36.1794 28.802 35.4801 28.3171C34.791 27.8387 36.1647 26.379 37.0312 26.1157Z" fill="#001043"/>
<path d="M26.4266 17.594C28.3433 17.1904 30.3679 17.9313 31.6674 19.4681C31.895 19.7374 32.0376 20.0424 32.0113 20.3882C31.997 20.5713 31.8687 20.7621 31.7227 20.8266C31.5926 20.8838 31.377 20.8495 31.2161 20.7158L31.2167 20.7152C29.7883 19.5248 27.981 18.9705 26.2314 19.4416C25.932 19.5223 25.641 19.476 25.4477 19.264C25.2543 19.052 25.2138 18.7265 25.3216 18.4283C25.4922 17.9566 25.9343 17.6976 26.4266 17.594Z" fill="#001043"/>
<path d="M15.1533 16.829C16.1441 15.9163 17.5077 15.6205 18.8129 15.8271C19.8003 15.9831 21.6605 16.5989 21.551 17.9423C21.5305 18.1917 21.4516 18.4338 21.2349 18.5573H21.2355C20.5458 18.9507 20.0683 17.7169 17.8608 17.432C16.1666 17.2133 15.5532 18.2146 15.1282 17.62C15.0147 17.461 14.9554 17.0115 15.1533 16.829Z" fill="#001043"/>
<path d="M32.001 48.8127C32.4609 48.8746 32.7031 49.0556 32.8643 49.2629C33.046 49.4969 33.1441 49.785 33.2686 50.133C33.4526 50.6477 34.075 50.745 34.4355 50.4075C34.7832 50.0819 35.0916 49.8297 35.4375 49.7327C35.7424 49.6471 36.1486 49.6649 36.7354 50.0608C37.127 50.3863 37.3189 50.9206 37.2676 51.5373C37.2125 52.2015 36.77 52.8674 36.1094 53.4621C35.4576 54.0489 34.6537 54.5106 34.0088 54.7737C33.3476 55.0433 32.704 54.9251 32.1816 54.4241C31.5291 53.7981 30.987 53.0542 30.6387 52.2131C30.4578 51.7759 30.323 51.2302 30.3008 50.7073C30.2783 50.1764 30.3737 49.7267 30.5889 49.426C30.9279 48.9522 31.4491 48.7385 32.001 48.8127Z" fill="#FFA400" stroke="#FFA400" stroke-width="0.910719"/>
</svg>
