<svg width="319" height="59" viewBox="0 0 319 59" fill="none" xmlns="http://www.w3.org/2000/svg">
<path d="M39.3316 3.36606V57.0034H29.7457V14.3789L10.5006 57.0034H0L24.2576 3.32947H34.7582V3.36606H39.3316Z" fill="white"/>
<path d="M83.8587 1.35374C85.8588 1.35374 87.8467 1.64644 89.8225 2.23184C91.7982 2.79285 93.6885 3.63437 95.4935 4.75639C97.2985 5.85401 98.9693 7.21994 100.506 8.85419C102.067 10.4884 103.421 12.3788 104.567 14.5253C105.714 16.6473 106.604 19.0133 107.238 21.6232C107.897 24.2332 108.226 27.0748 108.226 30.1481C108.226 33.2703 107.897 36.1485 107.238 38.7828C106.604 41.4171 105.714 43.8075 104.567 45.954C103.421 48.0761 102.067 49.9542 100.506 51.5885C98.9693 53.1983 97.2985 54.552 95.4935 55.6497C93.6885 56.7229 91.7982 57.54 89.8225 58.101C87.8467 58.6621 85.8588 58.9426 83.8587 58.9426C81.1268 58.9426 78.4193 58.4181 75.7362 57.3693C73.0532 56.3204 70.6018 54.7716 68.3821 52.7227C66.1625 50.6494 64.2843 48.1004 62.7477 45.0759C61.211 42.0269 60.2109 38.5267 59.7475 34.5752H56.0887V57.04H46.4662V3.36606H56.0887V25.6845H59.7841C60.0768 23.0746 60.6256 20.672 61.4305 18.4767C62.2354 16.2571 63.2233 14.2448 64.3941 12.4398C65.5649 10.6348 66.8943 9.04932 68.3821 7.68339C69.8944 6.29306 71.4921 5.13446 73.1751 4.20757C74.8581 3.2563 76.6022 2.54894 78.4071 2.08549C80.2365 1.59766 82.0537 1.35374 83.8587 1.35374ZM83.8587 50.9299C85.6881 50.8811 87.4687 50.4177 89.2005 49.5396C90.9567 48.6371 92.5177 47.3199 93.8837 45.5881C95.2496 43.8563 96.3594 41.6976 97.2131 39.1121C98.0669 36.5266 98.5059 33.5386 98.5303 30.1481C98.5059 26.7333 98.0669 23.7453 97.2131 21.1842C96.3594 18.5987 95.2496 16.44 93.8837 14.7082C92.5177 12.952 90.9567 11.6348 89.2005 10.7567C87.4687 9.85425 85.6881 9.39081 83.8587 9.36642C82.0293 9.39081 80.2365 9.85425 78.4803 10.7567C76.7485 11.6348 75.1996 12.952 73.8337 14.7082C72.4678 16.44 71.3579 18.5987 70.5042 21.1842C69.6749 23.7453 69.2481 26.7333 69.2237 30.1481C69.2481 33.5386 69.6749 36.5266 70.5042 39.1121C71.3579 41.6976 72.4678 43.8563 73.8337 45.5881C75.1996 47.3199 76.7485 48.6371 78.4803 49.5396C80.2365 50.4177 82.0293 50.8811 83.8587 50.9299Z" fill="white"/>
<path d="M160.473 26.7455C162.424 28.5017 163.912 30.5262 164.937 32.819C165.986 35.0875 166.51 37.5144 166.51 40.1C166.51 42.5391 166.034 44.8564 165.083 47.0516C164.156 49.2225 162.815 51.1494 161.058 52.8324C159.156 54.6618 156.924 56.0521 154.363 57.0034C151.826 57.9303 149.033 58.3937 145.984 58.3937C141.155 58.3937 136.801 57.4059 132.923 55.4301C129.044 53.4544 125.739 50.5396 123.007 46.6857L129.922 41.8196C131.874 44.5515 134.167 46.5882 136.801 47.9297C139.435 49.2712 142.496 49.942 145.984 49.942C148.058 49.942 149.85 49.6493 151.363 49.0639C152.899 48.4785 154.156 47.7224 155.131 46.7955C156.131 45.8686 156.863 44.8198 157.327 43.649C157.814 42.4538 158.058 41.2708 158.058 40.1C158.058 38.734 157.778 37.4535 157.217 36.2583C156.68 35.0387 155.887 33.9655 154.839 33.0386C153.521 31.8678 151.899 30.9775 149.972 30.3677C148.045 29.7579 145.862 29.453 143.423 29.453C134.715 29.453 128.41 32.8434 124.507 39.6243C123.922 40.6488 123.422 41.6732 123.007 42.6977C122.617 43.6977 122.288 44.649 122.02 45.5515C121.776 46.4296 121.58 47.2345 121.434 47.9663C121.312 48.698 121.215 49.2834 121.141 49.7225V57.0034H112.068V3.32947L147.265 3.36606C147.46 3.36606 147.655 3.36606 147.85 3.36606C148.631 3.36606 149.582 3.32947 150.704 3.25629C151.826 3.15873 153.021 2.98798 154.29 2.74406C155.582 2.47576 156.79 2.12208 157.912 1.68303C159.058 1.21959 159.985 0.658576 160.693 0L166.51 6.1833C165.607 7.03701 164.595 7.78095 163.473 8.41514C162.351 9.02493 161.193 9.53716 159.997 9.95182C158.802 10.3665 157.595 10.6958 156.375 10.9397C155.18 11.1836 154.046 11.3787 152.973 11.5251C151.899 11.647 150.924 11.7324 150.046 11.7812C149.192 11.8056 148.485 11.8178 147.924 11.8178H121.141V29.9652C122.263 28.7456 123.544 27.5992 124.983 26.526C126.422 25.4527 128.056 24.5015 129.886 23.6721C131.715 22.8428 133.752 22.1965 135.996 21.733C138.24 21.2452 140.716 21.0013 143.423 21.0013C146.911 21.0013 150.094 21.4891 152.973 22.4648C155.875 23.416 158.375 24.843 160.473 26.7455Z" fill="white"/>
<path d="M192.743 3.07336C194.719 3.07336 196.695 3.34166 198.67 3.87828C200.646 4.4149 202.537 5.20763 204.342 6.25647C206.171 7.30531 207.866 8.61027 209.427 10.1713C210.988 11.708 212.342 13.4764 213.488 15.4765C214.635 17.4767 215.537 19.7207 216.196 22.2086C216.854 24.6722 217.184 27.3431 217.184 30.2213C217.184 33.1483 216.854 35.8558 216.196 38.3438C215.537 40.8317 214.635 43.0758 213.488 45.0759C212.342 47.076 210.988 48.8444 209.427 50.3811C207.866 51.9178 206.171 53.1983 204.342 54.2228C202.537 55.2472 200.646 56.0277 198.67 56.5644C196.695 57.0766 194.719 57.3327 192.743 57.3327C190.768 57.3327 188.78 57.0766 186.779 56.5644C184.804 56.0277 182.901 55.2472 181.072 54.2228C179.267 53.1983 177.584 51.9178 176.023 50.3811C174.462 48.8444 173.108 47.076 171.962 45.0759C170.815 43.0758 169.913 40.8317 169.254 38.3438C168.595 35.8558 168.266 33.1483 168.266 30.2213C168.266 27.3187 168.595 24.6356 169.254 22.1721C169.913 19.7085 170.815 17.4767 171.962 15.4765C173.108 13.4764 174.462 11.708 176.023 10.1713C177.584 8.61027 179.267 7.30531 181.072 6.25647C182.901 5.20763 184.804 4.4149 186.779 3.87828C188.78 3.34166 190.768 3.07336 192.743 3.07336ZM192.743 49.7957C194.67 49.7713 196.5 49.3444 198.231 48.5151C199.963 47.6614 201.475 46.4174 202.768 44.7832C204.085 43.1245 205.122 41.0878 205.878 38.673C206.659 36.2339 207.049 33.4166 207.049 30.2213C207.049 27.0016 206.659 24.1844 205.878 21.7696C205.122 19.3304 204.085 17.2937 202.768 15.6595C201.475 14.0252 199.963 12.7935 198.231 11.9641C196.5 11.1104 194.67 10.6714 192.743 10.647C190.816 10.6714 188.975 11.1104 187.219 11.9641C185.487 12.7935 183.962 14.0252 182.645 15.6595C181.328 17.2937 180.279 19.3304 179.499 21.7696C178.718 24.1844 178.328 27.0016 178.328 30.2213C178.328 33.4166 178.718 36.2339 179.499 38.673C180.279 41.0878 181.328 43.1245 182.645 44.7832C183.962 46.4174 185.487 47.6614 187.219 48.5151C188.975 49.3444 190.816 49.7713 192.743 49.7957Z" fill="white"/>
<path d="M313.116 7.50045C314.873 9.20787 316.214 11.1592 317.141 13.3545C318.092 15.5253 318.568 17.8303 318.568 20.2695C318.568 22.855 318.043 25.282 316.995 27.5504C315.97 29.8189 314.482 31.8312 312.531 33.5874C310.409 35.4899 307.909 36.929 305.03 37.9047C302.152 38.856 298.969 39.3316 295.481 39.3316C292.774 39.3316 290.298 39.0999 288.054 38.6365C285.81 38.1486 283.773 37.4901 281.944 36.6607C280.114 35.8314 278.48 34.8801 277.041 33.8069C275.602 32.7093 274.321 31.5629 273.199 30.3677V57.0034H263.321V30.4043C262.199 31.5995 260.918 32.7459 259.479 33.8435C258.04 34.9167 256.406 35.868 254.576 36.6973C252.747 37.5266 250.71 38.1852 248.466 38.673C246.246 39.1365 243.783 39.3682 241.075 39.3682C237.563 39.3682 234.368 38.8804 231.489 37.9047C228.611 36.929 226.111 35.5021 223.989 33.624C222.038 31.8678 220.538 29.8554 219.489 27.587C218.464 25.2942 217.952 22.855 217.952 20.2695C217.952 17.8303 218.416 15.5253 219.342 13.3545C220.294 11.1592 221.647 9.22007 223.404 7.53704C225.306 5.70766 227.526 4.32953 230.063 3.40264C232.624 2.45136 235.429 1.97573 238.478 1.97573C243.307 1.97573 247.661 2.9636 251.539 4.93932C255.418 6.89066 258.723 9.79327 261.455 13.6472L254.576 18.5499C252.625 15.818 250.32 13.7813 247.661 12.4398C245.027 11.0982 241.966 10.4275 238.478 10.4275C236.404 10.4275 234.612 10.7202 233.099 11.3056C231.587 11.891 230.331 12.6471 229.331 13.574C228.355 14.5009 227.623 15.5619 227.136 16.7571C226.672 17.9279 226.44 19.0987 226.44 20.2695C226.44 21.6111 226.709 22.8916 227.245 24.1112C227.806 25.3308 228.611 26.404 229.66 27.3309C230.977 28.5017 232.599 29.392 234.526 30.0018C236.453 30.6116 238.636 30.9165 241.075 30.9165C249.783 30.9165 256.076 27.526 259.955 20.7451C260.54 19.7207 261.028 18.7084 261.418 17.7084C261.833 16.7083 262.162 15.7692 262.406 14.8911C262.674 13.9886 262.882 13.1715 263.028 12.4398C263.174 11.708 263.272 11.1226 263.321 10.6836V3.32947H273.199V10.647C273.272 11.1104 273.37 11.708 273.492 12.4398C273.638 13.1471 273.833 13.9521 274.077 14.8546C274.346 15.7327 274.675 16.6717 275.065 17.6718C275.48 18.6719 275.98 19.6841 276.565 20.7086C280.419 27.4895 286.724 30.8799 295.481 30.8799C297.92 30.8799 300.091 30.575 301.994 29.9652C303.921 29.3554 305.543 28.4651 306.86 27.2943C307.909 26.3674 308.714 25.3064 309.275 24.1112C309.836 22.8916 310.116 21.6111 310.116 20.2695C310.116 19.0743 309.872 17.8913 309.384 16.7205C308.897 15.5497 308.153 14.5009 307.153 13.574C306.177 12.6227 304.933 11.8666 303.421 11.3056C301.908 10.7202 300.116 10.4275 298.042 10.4275C294.554 10.4275 291.481 11.0982 288.822 12.4398C286.188 13.7569 283.895 15.7936 281.944 18.5499L275.065 13.6472C277.797 9.79327 281.102 6.89066 284.98 4.93932C288.859 2.9636 293.213 1.97573 298.042 1.97573C301.091 1.97573 303.884 2.43917 306.421 3.36606C308.982 4.29294 311.214 5.67107 313.116 7.50045Z" fill="white"/>
</svg>
