<svg width="144" height="99" viewBox="0 0 144 99" fill="none" xmlns="http://www.w3.org/2000/svg">
<g clip-path="url(#clip0_428_5200)">
<g clip-path="url(#clip1_428_5200)">
<path d="M140.279 11.708L140.483 11.5049L140.279 11.7052L140.076 11.9083L140.279 11.708ZM143.28 4.11383L143.082 3.90788C142.64 4.32835 142.27 5.08348 141.957 5.91298C141.639 6.75678 141.358 7.72643 141.114 8.62172C140.867 9.52559 140.658 10.3408 140.477 10.8985C140.385 11.1817 140.308 11.3705 140.251 11.4678C140.216 11.525 140.216 11.4992 140.265 11.4763C140.302 11.4592 140.354 11.4506 140.411 11.4678C140.463 11.4821 140.489 11.5107 140.497 11.5192L140.279 11.7052L140.061 11.8911C140.101 11.9369 140.162 11.9883 140.248 12.0141C140.34 12.0427 140.428 12.0284 140.5 11.9969C140.621 11.9426 140.695 11.8339 140.741 11.7624C140.839 11.6022 140.933 11.3533 141.025 11.073C141.212 10.4981 141.427 9.65717 141.668 8.77046C141.911 7.87804 142.187 6.9284 142.494 6.1132C142.806 5.2837 143.139 4.64298 143.478 4.31976L143.28 4.11383ZM119.514 34.9569C117.85 48.7466 128.521 60.72 142.244 61.3349L142.267 60.7629C128.865 60.1622 118.458 48.4691 120.082 35.0255L119.514 34.9569ZM136.765 15.2291L136.679 14.9574C127.508 17.8406 120.667 25.4119 119.514 34.9569L120.082 35.0255C121.206 25.7237 127.876 18.3269 136.851 15.5037L136.765 15.232V15.2291ZM135.274 7.38033L135.007 7.48331C136.017 10.0633 137.078 12.4546 136.484 15.1662L137.046 15.2863C137.686 12.3716 136.53 9.80018 135.543 7.27164L135.276 7.37461L135.274 7.38033ZM139.812 11.1646L140.03 10.9786C139.708 10.6039 139.41 10.2063 139.1 9.80304C138.793 9.40259 138.475 8.99643 138.122 8.62745C137.411 7.88376 136.553 7.2745 135.32 7.09716L135.279 7.38033L135.239 7.6635C136.306 7.81796 137.055 8.33854 137.709 9.02216C138.039 9.36541 138.34 9.74869 138.647 10.1491C138.951 10.5467 139.264 10.9615 139.599 11.3505L139.817 11.1646H139.812ZM140.279 11.708L140.497 11.5221L140.03 10.9786L139.812 11.1646L139.594 11.3505L140.061 11.8939L140.279 11.708ZM139.714 8.26418L139.984 8.36429C140.933 5.83575 141.671 3.64187 143.498 1.90564L143.102 1.49375C141.157 3.34153 140.38 5.67843 139.445 8.16693L139.714 8.26704V8.26418ZM132.425 5.47821L132.497 5.75566C135.165 5.07204 137.465 6.58516 139.522 8.47585L139.912 8.05823C137.847 6.15897 135.337 4.43991 132.356 5.20362L132.428 5.48107L132.425 5.47821ZM135.199 14.2223L135.483 14.2594C135.707 12.5547 135.374 11.0616 134.8 9.6257C134.232 8.20697 133.415 6.80827 132.68 5.34663L132.17 5.60406C132.927 7.11432 133.713 8.44724 134.27 9.83736C134.82 11.2132 135.124 12.6062 134.918 14.1851L135.202 14.2223H135.199ZM118.685 41.7988C116.705 29.8397 123.636 18.3812 135.291 14.494L135.199 14.2223L135.107 13.9505C123.186 17.9235 116.092 29.6509 118.117 41.8903L118.685 41.7988ZM142.924 62.6078L142.93 62.3218C130.664 62.1387 120.595 53.3374 118.685 41.796L118.117 41.8875C120.073 53.7035 130.377 62.7022 142.921 62.891L142.927 62.6049L142.924 62.6078ZM130.615 73.7974L130.678 74.0749C136.197 72.8078 141.255 68.6259 143.197 62.6993L142.652 62.522C140.776 68.2484 135.885 72.2958 130.549 73.52L130.612 73.7974H130.615ZM108.527 54.4901H108.24C108.28 59.9534 110.799 65.5511 114.844 69.4297C118.894 73.314 124.491 75.4965 130.675 74.0749L130.612 73.7974L130.549 73.52C124.585 74.8901 119.178 72.7963 115.242 69.0207C111.301 65.2393 108.854 59.7875 108.814 54.4901H108.527ZM108.433 41.1753H108.146L108.24 54.4901H108.527L108.814 54.4873L108.719 41.1724H108.433V41.1753ZM85.2002 19.1306L85.2461 19.4138C91.7491 18.3383 97.4432 20.7782 101.534 24.9915C105.627 29.2076 108.103 35.1943 108.146 41.1781H108.433L108.719 41.1753C108.676 35.0456 106.143 28.9187 101.947 24.5967C97.7472 20.269 91.8696 17.7434 85.1543 18.8532L85.2002 19.1363V19.1306ZM71.2045 30.2545L71.4684 30.3632C73.9468 24.4108 79.2967 20.3949 85.2432 19.4109L85.1514 18.8446C79.0127 19.8571 73.4964 24.0018 70.9406 30.1401L71.2045 30.2488V30.2545ZM67.1885 33.3808L67.2459 33.6611C69.2567 33.2607 70.6824 32.2567 71.4712 30.366L70.9434 30.1486C70.2406 31.8362 68.9899 32.7315 67.134 33.1034L67.1913 33.3837L67.1885 33.3808ZM46.5693 57.2561L46.8561 57.2618C47.1172 45.4801 55.7888 35.9494 67.243 33.6611L67.1282 33.1005C55.4303 35.4374 46.5463 45.1797 46.2795 57.2504L46.5664 57.2561H46.5693ZM63.2872 80.9912L63.3876 80.7223C53.4768 77.0697 46.6238 67.908 46.859 57.2618L46.2853 57.2504C46.0443 68.1626 53.0694 77.5331 63.1897 81.2601L63.2901 80.9912H63.2872ZM62.0082 89.0881L62.252 89.2397C62.7024 88.5132 62.7594 86.8921 63.5081 85.0472C63.881 84.129 64.1708 83.2051 64.2253 82.45C64.2539 82.0724 64.2253 81.712 64.0962 81.406C63.9642 81.0913 63.7319 80.8511 63.3876 80.7223L63.2872 80.9912L63.1868 81.2601C63.3704 81.3287 63.4909 81.4489 63.5655 81.6262C63.6458 81.815 63.6774 82.0753 63.6515 82.4071C63.6028 83.0707 63.3417 83.9288 62.9746 84.8326C62.2431 86.6318 62.209 88.2215 61.7644 88.9394L62.0082 89.091V89.0881ZM68.2556 86.7405L68.0663 86.526C65.9521 88.368 64.6903 89.6144 62.0943 88.8164L61.9279 89.3656C64.8538 90.2666 66.3451 88.7913 68.4478 86.9607L68.2585 86.7462L68.2556 86.7405ZM71.804 91.9617L71.9876 91.7415C71.1184 91.015 70.5447 91.0424 70.0111 89.9784C69.469 88.9 69.0444 87.7731 68.5138 86.6204L67.9917 86.8606C68.4937 87.9504 68.9555 89.1603 69.4977 90.2358C70.0484 91.3313 70.6623 91.3839 71.6175 92.182L71.8011 91.9617H71.804ZM75.5532 86.6518L75.295 86.526C75.0053 87.1152 74.7701 87.7187 74.5463 88.3022C74.3226 88.8886 74.1103 89.455 73.8665 89.9956C73.3788 91.0682 72.7162 91.0321 71.6491 91.7215L71.804 91.9617L71.9589 92.202C73.1551 91.4297 73.8751 91.3571 74.3886 90.2301C74.6439 89.6695 74.8619 89.0831 75.0828 88.5053C75.3065 87.9218 75.5331 87.344 75.8114 86.7777L75.5532 86.6518ZM81.7525 88.5768L81.6694 88.3022C79.1106 89.0717 77.8251 88.3509 75.7454 86.4402L75.3553 86.8635C77.4321 88.7742 78.9442 89.721 81.8328 88.8514L81.7497 88.5768H81.7525ZM79.77 81.1857L79.4831 81.1743C79.4229 82.7761 79.8474 84.2091 80.4527 85.562C81.0522 86.9035 80.8203 87.4155 81.5001 88.7084L82.0107 88.4452C81.305 87.1037 81.5686 86.6547 80.9805 85.3332C80.3953 84.026 80.0052 82.6817 80.0626 81.2L79.7757 81.1886L79.77 81.1857ZM97.1907 56.1177L96.9039 56.1377C97.7243 67.4933 90.4611 77.3729 79.6782 80.9168L79.856 81.4603C90.8656 77.842 98.3152 67.7364 97.4747 56.0977L97.1879 56.1177H97.1907ZM73.769 33.8556L74.0386 33.7555C74.0214 33.7098 74.0243 33.6869 74.0243 33.6783C74.0243 33.6726 74.0271 33.6611 74.0501 33.6411C74.1017 33.5925 74.2279 33.5267 74.4746 33.4867C74.9594 33.4066 75.7425 33.4409 76.7465 33.6297C78.7459 34.0044 81.537 34.9683 84.4113 36.6416C90.1542 39.9882 96.1839 46.158 96.9039 56.132L97.4776 56.0919C96.7404 45.8748 90.5558 39.5592 84.701 36.1468C81.7751 34.442 78.9209 33.4552 76.8527 33.0662C75.8228 32.8717 74.9623 32.8231 74.38 32.9203C74.0931 32.9689 73.8292 33.0576 73.6513 33.2264C73.5596 33.315 73.4907 33.4295 73.462 33.5639C73.4362 33.6955 73.4534 33.827 73.4993 33.95L73.769 33.8499V33.8556ZM74.575 34.6308L74.6094 34.3476C74.5435 34.339 74.423 34.2704 74.2853 34.1188C74.1533 33.9758 74.0644 33.8242 74.0386 33.7584L73.4993 33.9586C73.5567 34.1159 73.6972 34.3305 73.8607 34.5107C74.0185 34.6794 74.2566 34.8854 74.5377 34.9197L74.5722 34.6365L74.575 34.6308ZM95.6532 57.2532L95.94 57.2447C95.6274 45.2856 86.1755 35.7721 74.6094 34.3476L74.575 34.6308L74.5406 34.914C85.8456 36.307 95.0651 45.6031 95.3692 57.259L95.6561 57.2504L95.6532 57.2532ZM79.9765 79.4724L80.074 79.7412C89.6177 76.3231 96.2097 67.4875 95.9429 57.2447L95.3692 57.2618C95.6302 67.2387 89.2104 75.8655 79.8819 79.2035L79.9794 79.4724H79.9765ZM78.6283 80.6852C78.6914 80.545 78.8779 80.3648 79.1676 80.1789C79.4458 80.0015 79.7786 79.8471 80.0712 79.7412L79.8761 79.2035C79.5491 79.3208 79.1762 79.4952 78.8578 79.6983C78.548 79.8957 78.241 80.1503 78.1062 80.4506L78.6283 80.6852ZM78.2296 82.6302L78.5049 82.5472C78.4504 82.3699 78.4304 82.0066 78.4591 81.6119C78.4849 81.2143 78.5537 80.8596 78.6312 80.688L78.1091 80.4535C77.9857 80.7223 77.914 81.1657 77.8853 81.5747C77.8567 81.9837 77.8681 82.4328 77.9571 82.716L78.2324 82.633L78.2296 82.6302ZM79.7413 87.5528L80.0167 87.4699L78.5049 82.5472L78.2296 82.6302L77.9542 82.7131L79.4659 87.6358L79.7413 87.5528ZM74.575 83.2022L74.8303 83.331C74.816 83.3596 74.7643 83.4196 74.6783 83.4225C74.6267 83.4225 74.6123 83.4025 74.6525 83.4282C74.7271 83.4768 74.8447 83.5884 75.011 83.7772C75.3409 84.1519 75.7569 84.7011 76.2589 85.3075C76.7494 85.8995 77.3088 86.5288 77.8882 87.0094C78.4591 87.4813 79.0987 87.8503 79.7442 87.8417V87.5557L79.7356 87.2697C79.3024 87.2754 78.8004 87.0208 78.2554 86.5689C77.719 86.1255 77.1883 85.5306 76.7006 84.9442C76.2244 84.3721 75.7741 83.78 75.4413 83.4025C75.2749 83.2137 75.1114 83.0449 74.9651 82.9505C74.8963 82.9048 74.7844 82.8476 74.6553 82.8533C74.489 82.859 74.3742 82.962 74.3169 83.0793L74.5722 83.208L74.575 83.2022ZM71.8499 90.539L72.0507 90.745C73.1981 89.638 73.7173 88.0877 74.0415 86.6804C74.2021 85.9796 74.3226 85.2874 74.4373 84.7068C74.5578 84.1118 74.6754 83.6427 74.8332 83.3281L74.3226 83.0707C74.1247 83.4654 73.9956 84.006 73.878 84.5924C73.7575 85.1959 73.6456 85.8566 73.485 86.5488C73.1666 87.9332 72.676 89.3434 71.6548 90.3302L71.8556 90.5362L71.8499 90.539ZM69.1592 83.1679L68.8838 83.248C69.0817 83.9116 69.2452 84.5666 69.4116 85.2131C69.5751 85.8595 69.7386 86.5002 69.9251 87.1238C70.3009 88.3766 70.7885 89.5837 71.6175 90.7078L71.8499 90.539L72.0822 90.3703C71.3077 89.3205 70.843 88.1821 70.4759 86.9607C70.2923 86.3486 70.1316 85.7222 69.9681 85.0729C69.8046 84.4265 69.6354 83.7629 69.4346 83.085L69.1592 83.1651V83.1679ZM63.8839 87.6873L63.9441 87.9676C65.301 87.6758 66.2074 86.9407 66.9963 86.0769C67.3864 85.6507 67.7565 85.1816 68.1351 84.7239C68.5138 84.2634 68.9068 83.8029 69.3571 83.3739L69.1592 83.1679L68.9613 82.962C68.4851 83.4168 68.0749 83.8945 67.6933 84.3607C67.3061 84.8298 66.9533 85.2789 66.5746 85.6907C65.8259 86.5088 65.0199 87.1495 63.8237 87.407L63.8839 87.6873ZM65.192 80.0301L64.9194 80.1217C65.7599 82.6302 64.6613 84.9671 63.6171 87.5843L64.1507 87.796C65.1633 85.2588 66.3853 82.6931 65.4616 79.9415L65.1891 80.033L65.192 80.0301ZM48.1929 58.9351L47.906 58.9494C48.4224 69.0865 55.5077 77.2356 65.103 80.3047L65.2809 79.7613C55.8835 76.7579 48.9846 68.7919 48.4826 58.9237L48.1958 58.938L48.1929 58.9351ZM67.527 34.9397L67.4753 34.6594C55.8663 36.7846 47.3036 47.1019 47.9089 58.9494L48.4826 58.9208C47.8946 47.3708 56.2421 37.2995 67.5815 35.2229L67.5298 34.9426L67.527 34.9397ZM72.4924 31.2098L72.2285 31.1011C71.3651 33.1777 69.6698 34.2561 67.4753 34.6565L67.5786 35.2172C69.9165 34.7881 71.804 33.6154 72.7592 31.3157L72.4953 31.207L72.4924 31.2098ZM83.9724 20.967L83.9007 20.6895C78.8434 21.9767 74.4115 25.8381 72.2257 31.1011L72.7535 31.3185C74.8762 26.21 79.1676 22.4829 84.0413 21.2415L83.9696 20.9641L83.9724 20.967ZM99.8211 25.083L100.019 24.877C95.722 20.7982 89.9046 19.1621 83.9036 20.6924L84.047 21.2473C89.8501 19.7685 95.4667 21.3474 99.6231 25.2946L99.8211 25.0887V25.083ZM107.337 55.5885C107.113 52.9341 107.147 50.2769 107.182 47.6253C107.213 44.9795 107.242 42.3394 106.995 39.7451C106.499 34.5421 104.898 29.5079 100.019 24.8742L99.6231 25.2861C104.376 29.7997 105.937 34.6909 106.422 39.7966C106.665 42.3566 106.637 44.9652 106.605 47.6167C106.574 50.2626 106.536 52.9484 106.763 55.6343L107.337 55.5885ZM119.04 73.9176L119.167 73.6601C112.259 70.2907 107.991 63.2886 107.337 55.5885L106.763 55.6343C107.431 63.5088 111.803 70.7026 118.914 74.1721L119.04 73.9147V73.9176ZM140.279 11.708L140.497 11.5221L140.492 11.5135L140.483 11.5049L140.279 11.708ZM143.28 4.11383L143.486 3.91646L143.288 3.70766L143.079 3.90502L143.277 4.11096L143.28 4.11383ZM136.765 15.2291L136.851 15.5008L137.009 15.4522L137.044 15.2892L136.762 15.2291H136.765ZM135.274 7.38033L135.314 7.09716L134.826 7.02565L135.004 7.48331L135.271 7.38033H135.274ZM140.279 11.708L140.061 11.8939L140.078 11.9111L140.282 11.708H140.279ZM143.3 1.69684L143.481 1.47373L143.286 1.31641L143.102 1.49089L143.3 1.69684ZM139.714 8.26418L139.519 8.47298L139.832 8.76188L139.981 8.36429L139.711 8.26418H139.714ZM132.425 5.47821L132.353 5.20075L132.009 5.28942L132.167 5.60692L132.422 5.47821H132.425ZM135.199 14.2223L135.291 14.494L135.46 14.4368L135.483 14.2594L135.199 14.2223ZM142.924 62.6078L143.197 62.6965L143.317 62.3275L142.927 62.3218L142.921 62.6078H142.924ZM62.0082 89.0881L61.7644 88.9365L61.5693 89.2512L61.925 89.3599L62.0082 89.0853V89.0881ZM68.2556 86.7405L68.5166 86.6204L68.356 86.2714L68.0663 86.5231L68.2556 86.7376V86.7405ZM71.804 91.9617L71.6204 92.182L71.7839 92.3164L71.9618 92.202L71.8069 91.9617H71.804ZM75.5532 86.6518L75.7483 86.4402L75.4643 86.1799L75.295 86.526L75.5532 86.6518ZM81.7525 88.5768L81.8357 88.8514L82.1685 88.7513L82.0078 88.4452L81.7525 88.5768ZM79.77 81.1857L79.6811 80.914L79.4917 80.9769L79.4831 81.1743L79.77 81.1857ZM79.7413 87.5528V87.8389L80.1285 87.8331L80.0167 87.4699L79.7413 87.5528ZM71.8499 90.539L71.6175 90.7078L71.8126 90.9709L72.0478 90.7421L71.847 90.5362L71.8499 90.539ZM69.1592 83.1679L69.4346 83.0878L69.2997 82.6388L68.9584 82.9648L69.1563 83.1708L69.1592 83.1679ZM63.8839 87.6873L63.6171 87.5814L63.4192 88.0791L63.9441 87.9647L63.8839 87.6844V87.6873ZM65.192 80.0301L65.4645 79.9386L65.4186 79.8013L65.2809 79.7584L65.192 80.0301Z" fill="#D3E1F2"/>
<path d="M3.94776 11.0672L4.15141 11.2703H4.15429L3.95061 11.0643L3.74695 10.8612H3.74408L3.94776 11.0672ZM8.3137 7.38015L8.26493 7.09983C7.17488 7.29147 6.31719 7.89215 5.59718 8.60724C4.87717 9.32232 4.2805 10.1776 3.724 10.8898L3.95061 11.0643L4.17724 11.2388C4.75669 10.4951 5.32466 9.68558 6.00164 9.00768C6.67575 8.3355 7.43304 7.82064 8.36246 7.6576L8.3137 7.37728V7.38015ZM6.97409 15.3091L7.24945 15.229C6.85933 13.9161 6.95974 12.6632 7.27528 11.3933C7.59656 10.1061 8.12437 8.85036 8.58334 7.47168L8.03831 7.28861C7.59655 8.61009 7.04292 9.94015 6.71591 11.2531C6.38315 12.5832 6.26554 13.9447 6.69583 15.3892L6.97121 15.3091H6.97409ZM24.0506 37.1849L24.3375 37.1764C24.0478 26.7905 16.9051 18.1151 7.06014 15.0345L6.88803 15.5779C16.5207 18.5899 23.4827 27.0651 23.7638 37.1907L24.0506 37.1821V37.1849ZM3.6609 60.8686L3.70105 61.1517C15.6056 59.4613 24.6702 49.3071 24.3346 37.1764L23.7609 37.1935C24.0879 49.0182 15.2499 58.935 3.61787 60.5854L3.65803 60.8686H3.6609ZM2.80319 61.6895L3.07858 61.7724C3.08431 61.7524 3.11013 61.7009 3.16463 61.6237C3.21626 61.5522 3.28225 61.475 3.35683 61.4006C3.43142 61.3262 3.50886 61.2633 3.5777 61.2175C3.61212 61.1946 3.64081 61.1775 3.66663 61.166C3.6781 61.1603 3.68672 61.1575 3.69532 61.1546C3.69819 61.1546 3.70105 61.1546 3.70392 61.1546L3.61787 60.5883C3.48304 60.6083 3.35682 60.6741 3.25642 60.7427C3.15029 60.8142 3.04415 60.9029 2.94949 60.9973C2.85482 61.0917 2.76591 61.1918 2.6942 61.2919C2.62535 61.3863 2.55937 61.4978 2.52495 61.6094L2.80033 61.6923L2.80319 61.6895ZM3.86456 62.0871C3.70392 62.1071 3.4773 62.0384 3.29085 61.9126C3.19905 61.8525 3.13595 61.7925 3.10153 61.7467C3.0585 61.6895 3.09866 61.7066 3.07858 61.7724L2.80319 61.6895L2.52782 61.6065C2.46758 61.8039 2.56224 61.9784 2.63682 62.0842C2.72288 62.1986 2.84049 62.3045 2.97244 62.3903C3.22487 62.5562 3.58917 62.6963 3.9334 62.6534L3.86456 62.0871ZM25.6886 37.757H25.4017C25.5365 50.1623 15.7806 60.594 3.86456 62.0871L3.9334 62.6534C16.1248 61.1289 26.1103 50.4626 25.9726 37.7542H25.6857L25.6886 37.757ZM8.35673 14.1821L8.26493 14.4538C18.4426 17.8633 25.2841 27.0765 25.4017 37.7599H25.6886L25.9754 37.7542C25.8578 26.8219 18.8528 17.3971 8.44853 13.9104L8.35673 14.1821ZM10.9413 5.55811L10.7835 5.79552C10.6917 5.73545 10.7004 5.64678 10.7004 5.67539C10.7004 5.69541 10.6946 5.74117 10.6688 5.82698C10.62 5.99288 10.5196 6.23029 10.382 6.53349C10.2443 6.83382 10.0722 7.18279 9.88278 7.57179C9.69348 7.9608 9.48981 8.38413 9.28614 8.83034C8.88168 9.71705 8.4772 10.6953 8.22764 11.6307C7.97808 12.5603 7.8662 13.4842 8.08422 14.2565L8.63497 14.102C8.45999 13.4813 8.54031 12.6775 8.78127 11.7794C9.01936 10.8898 9.40662 9.94587 9.80818 9.06775C10.009 8.63011 10.2098 8.20965 10.3992 7.82064C10.5856 7.4345 10.7606 7.07695 10.904 6.77089C11.0446 6.4677 11.1593 6.19883 11.2196 5.98716C11.2511 5.88419 11.2741 5.77549 11.2741 5.67824C11.2741 5.58957 11.254 5.41796 11.0991 5.31784L10.9413 5.55525V5.55811ZM3.92768 8.2783L4.12848 8.48138C4.97183 7.65188 6.3057 6.73657 7.61664 6.15592C8.27067 5.86703 8.90749 5.66394 9.46399 5.59815C10.0262 5.5295 10.4709 5.59816 10.7807 5.80124L11.0962 5.3207C10.6258 5.01178 10.0205 4.94885 9.39228 5.02608C8.76119 5.10331 8.067 5.32642 7.38141 5.62962C6.01024 6.23601 4.61899 7.19137 3.724 8.07235L3.9248 8.27544L3.92768 8.2783ZM11.6699 75.0443L11.7445 74.767C6.85074 73.4426 2.36718 69.7556 0.144043 64.5727L0.181336 64.9203C2.47332 70.2663 6.53232 73.9459 11.5925 75.316L11.6671 75.0387L11.6699 75.0443ZM28.1728 71.7379L27.9978 71.5118C23.3364 75.1244 17.6767 76.3745 11.7445 74.7698L11.5953 75.3247C17.7082 76.9809 23.5515 75.688 28.3506 71.9667L28.1756 71.7407L28.1728 71.7379ZM36.8616 54.4242H36.5748C36.5117 61.1374 33.2989 67.4043 27.9978 71.5147L28.3477 71.9667C33.7836 67.7534 37.0796 61.3234 37.1456 54.4271H36.8587L36.8616 54.4242ZM36.985 41.1522H36.6981L36.5719 54.4214H36.8587L37.1456 54.4271L37.2718 41.1551H36.985V41.1522ZM56.5141 20.1116C44.5723 19.6682 36.8014 30.486 36.701 41.1494H36.9878L37.2747 41.1551C37.3722 30.7063 44.9739 20.2575 56.4912 20.6836L56.5141 20.1116ZM69.1243 27.2939L69.3595 27.128C66.6086 23.2465 61.4079 20.2946 56.5141 20.1116L56.4912 20.6836C61.1956 20.8581 66.2357 23.7156 68.8891 27.4569L69.1243 27.291V27.2939ZM70.5299 27.3368H70.243C70.243 27.271 70.2775 27.231 70.2889 27.2224C70.2947 27.2167 70.2889 27.2224 70.2516 27.2367C70.1828 27.2624 70.0652 27.2796 69.9275 27.2796C69.7898 27.2796 69.655 27.2624 69.5431 27.2252C69.4255 27.1881 69.3739 27.1452 69.3595 27.1251L69.1243 27.291L68.8891 27.4569C69.0096 27.6257 69.2017 27.7201 69.371 27.7744C69.5488 27.8288 69.7468 27.8545 69.9275 27.8545C70.1082 27.8545 70.2918 27.8316 70.4438 27.7773C70.5184 27.7515 70.6016 27.7115 70.6733 27.6486C70.7479 27.5828 70.8167 27.4769 70.8167 27.3397H70.5299V27.3368ZM70.3176 26.1955L70.0881 26.3671C70.1828 26.493 70.2258 26.6589 70.243 26.8448C70.2602 27.0422 70.243 27.1852 70.243 27.3368H70.8167C70.8167 27.2596 70.834 27.0193 70.8167 26.7962C70.7967 26.5616 70.7364 26.2699 70.55 26.0239L70.3205 26.1955H70.3176ZM42.0881 25.0628C49.8246 16.5047 63.4273 17.5115 70.091 26.37L70.55 26.0268C63.6798 16.8908 49.6496 15.8468 41.6636 24.6795L42.0881 25.0628ZM35.4101 40.9434H35.697C35.7486 34.8452 38.1238 29.4477 42.0881 25.0628L41.6636 24.6795C37.616 29.156 35.1778 34.685 35.1261 40.9406H35.413L35.4101 40.9434ZM35.2982 53.5347H35.5851L35.697 40.9434H35.4101L35.1233 40.9377L35.0114 53.5318H35.2982V53.5347ZM28.0637 69.7585L28.2531 69.973C32.9546 65.8284 35.5306 59.8245 35.5851 53.5375H35.2982L35.0114 53.5318C34.9569 59.6644 32.444 65.5138 27.8715 69.5411L28.0609 69.7556L28.0637 69.7585ZM12.6625 73.6799L12.5907 73.9575C18.3824 75.4506 23.9273 73.7859 28.2531 69.973L28.0637 69.7585L27.8744 69.544C23.6749 73.2453 18.3221 74.8412 12.737 73.4025L12.6653 73.6799H12.6625ZM3.94776 11.0672L3.72113 10.8927L4.15141 11.2703L3.94776 11.0672ZM8.3137 7.38015L8.58621 7.47168L8.73824 7.01689L8.26493 7.09983L8.3137 7.38015ZM6.97409 15.3091L6.69869 15.3892L6.74173 15.535L6.88803 15.5808L6.97409 15.3091ZM3.6609 60.8686L3.62074 60.5854L3.66376 60.8686H3.6609ZM8.35673 14.1821L8.08134 14.2593L8.12151 14.4052L8.26493 14.4538L8.35673 14.1821ZM3.92768 8.2783L3.65516 8.36982L3.80146 8.80174L4.12848 8.48138L3.92768 8.2783ZM3.95348 11.0615L4.18011 11.2359L3.74983 10.8584L3.95348 11.0615Z" fill="#D3E1F2"/>
<path d="M0 63.4273C1.33334 66.7607 5.4 73.7273 11 74.9273C15.1667 76.9273 25.5 77.9273 33.5 65.9273C35.1667 62.4273 38.1 52.4273 36.5 40.4273C37.5 33.594 42.8 19.1272 56 19.9272C58.8333 19.4272 65.6 19.6273 72 28.4273L71 32.9273C66 33.094 55.2 36.5273 50 46.9273C43.5 59.9273 51.5 71.9273 52.5 72.4273C53.5 72.9273 57.5 79.4273 64 80.9273C64.8333 81.4273 64.6703 83.6291 61.0703 89.6291C63.237 88.9624 68.4837 86.9924 68.8837 84.5924C69.217 87.0924 70.3512 91.453 71.9512 91.453C73.5512 91.453 74.7493 87.2775 75.0827 84.9442C76.0827 86.2775 78.7 89.5273 81.5 89.9273C80.3848 87.4273 78.3889 82.1273 79.3272 80.9273C83.5515 79.5939 92.6 74.8273 95 66.4273C96 64.2607 97.7 58.8273 96.5 54.4273L96.4043 54.0764C94.9773 48.8404 94.4353 46.8518 91.5 43.4273C89.1 40.6273 84.8333 37.594 83 36.4273L71.5 32.9273C73 28.2606 78.5 18.9272 92.5 20.9273C97.1667 22.4273 106.7 27.7273 107.5 36.9273C108.3 46.1273 108.167 55.094 108 58.4273C108.833 61.9273 111.9 69.8273 117.5 73.4273C123.1 77.0273 128.5 75.2606 131.5 74.4273C135 72.9273 141.497 68.8163 143.497 63.3164C138.697 63.7164 131.33 60.057 128.997 58.4273C124.497 55.3904 116.097 46.2164 118.497 33.8164C121.497 18.3164 133.497 15.8164 134.997 13.8164C136.197 12.2164 133.83 7.48307 132.497 5.31641C134.897 4.51641 138.497 6.64974 139.997 7.81641C139.597 6.21641 142.164 2.81641 143.497 1.31641V63.3164V99.3164H0V63.4273L0.5 1.31641C1.83333 2.64974 4.5 5.81641 4.5 7.81641C5.83333 6.64974 9.1 4.51641 11.5 5.31641C10.3333 7.48307 8.1 12.3164 8.5 14.3164C15 16.1497 27.7 23.5164 26.5 38.3164C25.3 53.1164 14.3333 59.8164 9 61.3164C7 62.0201 2.6 63.4273 1 63.4273H0Z" fill="#D3E1F2"/>
<path d="M140.279 11.708L140.483 11.5049M140.279 11.708L140.076 11.9083L140.279 11.7052M140.279 11.7052L140.483 11.5049L140.492 11.5135L140.497 11.5221L140.279 11.708M140.279 11.708L140.061 11.8939M140.279 11.708H140.282M140.279 11.7052L140.497 11.5192C140.489 11.5107 140.463 11.4821 140.411 11.4678C140.354 11.4506 140.302 11.4592 140.265 11.4763C140.216 11.4992 140.216 11.525 140.251 11.4678C140.308 11.3705 140.385 11.1817 140.477 10.8985C140.658 10.3408 140.867 9.52559 141.114 8.62172C141.358 7.72643 141.639 6.75678 141.957 5.91298C142.27 5.08348 142.64 4.32835 143.082 3.90788L143.28 4.11383M140.279 11.7052L140.061 11.8911C140.101 11.9369 140.162 11.9883 140.248 12.0141C140.34 12.0427 140.428 12.0284 140.5 11.9969C140.621 11.9426 140.695 11.8339 140.741 11.7624C140.839 11.6022 140.933 11.3533 141.025 11.073C141.212 10.4981 141.427 9.65717 141.668 8.77046C141.911 7.87804 142.187 6.9284 142.494 6.1132C142.806 5.2837 143.139 4.64298 143.478 4.31976L143.28 4.11383M139.812 11.1646H139.817L139.599 11.3505C139.264 10.9615 138.951 10.5467 138.647 10.1491C138.34 9.74869 138.039 9.36541 137.709 9.02216C137.055 8.33854 136.306 7.81796 135.239 7.6635L135.279 7.38033L135.32 7.09716C136.553 7.2745 137.411 7.88376 138.122 8.62745C138.475 8.99643 138.793 9.40259 139.1 9.80304C139.41 10.2063 139.708 10.6039 140.03 10.9786L140.497 11.5221M139.812 11.1646L139.594 11.3505L140.061 11.8939L140.078 11.9111L140.282 11.708L140.284 11.7054C140.809 12.3147 141.721 5.60147 143.285 4.11123M140.282 11.708L139.814 11.1648C138.497 9.64028 137.577 7.71499 135.279 7.38033M143.28 4.11383L143.486 3.91646L143.288 3.70766L143.079 3.90502L143.277 4.11096L143.28 4.11383ZM143.486 3.91932L143.073 4.31405M120.082 35.0255C118.458 48.4691 128.865 60.1622 142.267 60.7629L142.244 61.3349C128.521 60.72 117.85 48.7466 119.514 34.9569C120.667 25.4119 127.508 17.8406 136.679 14.9574L136.765 15.2291M136.765 15.2291V15.232L136.851 15.5037C127.876 18.3269 121.206 25.7237 120.082 35.0255M136.765 15.2291L136.851 15.5008L137.009 15.4522L137.044 15.2892L136.762 15.2291H136.765ZM119.514 34.9569L120.082 35.0255M135.274 7.38033L135.007 7.48331C136.017 10.0633 137.078 12.4546 136.484 15.1662L137.046 15.2863C137.686 12.3716 136.53 9.80018 135.543 7.27164L135.276 7.37461L135.274 7.38033ZM135.274 7.38033L135.314 7.09716L134.826 7.02565L135.004 7.48331L135.271 7.38033H135.274ZM139.812 11.1646L140.03 10.9786M135.279 7.38033C136.278 9.93462 137.387 12.4148 136.77 15.2294C127.697 18.084 120.941 25.5666 119.803 34.9886C118.159 48.6067 128.698 60.4399 142.261 61.0463M143.119 1.91994L143.3 1.69684L143.481 1.47373L143.286 1.31641L143.102 1.49089L143.3 1.69684M143.3 1.69684L143.297 1.6997L143.478 1.47659M139.714 8.26418L139.984 8.36429C140.933 5.83575 141.671 3.64187 143.498 1.90564L143.102 1.49375C141.157 3.34153 140.38 5.67843 139.445 8.16693L139.714 8.26704V8.26418ZM139.714 8.26418L139.519 8.47298L139.832 8.76188L139.981 8.36429L139.711 8.26418H139.714ZM132.425 5.47821L132.497 5.75566C135.165 5.07204 137.465 6.58516 139.522 8.47585L139.912 8.05823C137.847 6.15897 135.337 4.43991 132.356 5.20362L132.428 5.48107L132.425 5.47821ZM132.425 5.47821L132.353 5.20075L132.009 5.28942L132.167 5.60692L132.422 5.47821H132.425ZM135.199 14.2223L135.483 14.2594M135.199 14.2223H135.202L134.918 14.1851C135.124 12.6062 134.82 11.2132 134.27 9.83736C133.713 8.44724 132.927 7.11432 132.17 5.60406L132.68 5.34663C133.415 6.80827 134.232 8.20697 134.8 9.6257C135.374 11.0616 135.707 12.5547 135.483 14.2594M135.291 14.494L135.199 14.2223L135.107 13.9505C123.186 17.9235 116.092 29.6509 118.117 41.8903L118.685 41.7988C116.705 29.8397 123.636 18.3812 135.291 14.494L135.46 14.4368L135.483 14.2594M142.924 62.6078L142.93 62.3218C130.664 62.1387 120.595 53.3374 118.685 41.796L118.117 41.8875C120.073 53.7035 130.377 62.7022 142.921 62.891L142.927 62.6049L142.924 62.6078ZM142.924 62.6078L143.197 62.6965L143.317 62.3275L142.927 62.3218L142.921 62.6078H142.924ZM130.552 73.52L130.615 73.7974L130.678 74.0749C136.197 72.8078 141.255 68.6259 143.197 62.6993L142.652 62.522C140.776 68.2484 135.885 72.2958 130.549 73.52C124.585 74.8901 119.178 72.7963 115.242 69.0207C111.301 65.2393 108.854 59.7875 108.814 54.4901H108.527M108.527 54.4901H108.24M108.527 54.4901L108.814 54.4873L108.719 41.1724H108.433V41.1753M130.549 73.52L130.612 73.7974M130.615 73.7974H130.612M108.433 41.1753H108.146L108.24 54.4901C108.28 59.9534 110.799 65.5511 114.844 69.4297C118.894 73.314 124.491 75.4965 130.675 74.0749L130.612 73.7974M108.433 41.1753H108.719M108.719 41.1753L108.433 41.1781H108.146C108.103 35.1943 105.627 29.2076 101.534 24.9915C97.4431 20.7782 91.749 18.3383 85.246 19.4138L85.2001 19.1306V19.1363L85.1542 18.8532C91.8695 17.7434 97.7471 20.269 101.947 24.5967C106.143 28.9187 108.676 35.0456 108.719 41.1753ZM67.1884 33.3808L67.2458 33.6611C69.2566 33.2607 70.6823 32.2567 71.4711 30.366L70.9433 30.1486C70.2405 31.8362 68.9898 32.7315 67.1339 33.1034L67.1912 33.3837L67.1884 33.3808ZM67.1884 33.3808L67.131 33.1005M46.5692 57.2561L46.856 57.2618C47.1171 45.4801 55.7887 35.9494 67.2429 33.6611L67.1281 33.1005C55.4302 35.4374 46.5462 45.1797 46.2794 57.2504L46.5663 57.2561H46.5692ZM46.5692 57.2561L46.2823 57.2504M62.0081 89.0881V89.091L61.7643 88.9394C62.2089 88.2215 62.243 86.6318 62.9745 84.8326C63.3416 83.9288 63.6027 83.0707 63.6514 82.4071C63.6773 82.0753 63.6457 81.815 63.5654 81.6262C63.4908 81.4489 63.3703 81.3287 63.1867 81.2601L63.2871 80.9912M63.2871 80.9912H63.29L63.1896 81.2601C53.0693 77.5331 46.0442 68.1626 46.2852 57.2504L46.8589 57.2618C46.6237 67.908 53.4767 77.0697 63.3875 80.7223C63.7318 80.8511 63.9641 81.0913 64.0961 81.406C64.2252 81.712 64.2538 82.0724 64.2252 82.45C64.1707 83.2051 63.8809 84.129 63.508 85.0472C62.7593 86.8921 62.7023 88.5132 62.2519 89.2397L62.0081 89.0881M62.0081 89.0881L61.7643 88.9365L61.5692 89.2512L61.9249 89.3599L62.0081 89.0853V89.0881ZM63.2871 80.9912L63.3875 80.7223M68.2555 86.7405L68.0662 86.526C65.952 88.368 64.6902 89.6144 62.0942 88.8164L61.9278 89.3656C64.8537 90.2666 66.345 88.7913 68.4477 86.9607L68.2584 86.7462L68.2555 86.7405ZM68.2555 86.7405L68.5165 86.6204L68.3559 86.2714L68.0662 86.5231L68.2555 86.7376V86.7405ZM71.8039 91.9617L71.9875 91.7415C71.1183 91.015 70.5446 91.0424 70.011 89.9784C69.4689 88.9 69.0443 87.7731 68.5137 86.6204L67.9916 86.8606C68.4936 87.9504 68.9554 89.1603 69.4976 90.2358C70.0483 91.3313 70.6622 91.3839 71.6174 92.182L71.801 91.9617H71.8039ZM71.8039 91.9617L71.649 91.7215C72.7161 91.0321 73.3787 91.0682 73.8664 89.9956C74.1102 89.455 74.3225 88.8886 74.5462 88.3022C74.77 87.7187 75.0052 87.1152 75.2949 86.526M71.8039 91.9617L71.9588 92.202C73.155 91.4297 73.875 91.3571 74.3885 90.2301C74.6438 89.6695 74.8618 89.0831 75.0827 88.5053C75.3064 87.9218 75.533 87.344 75.8113 86.7777L75.5531 86.6518M71.8039 91.9617L71.6203 92.182L71.7838 92.3164L71.9617 92.202L71.8068 91.9617H71.8039ZM75.2949 86.526L75.5531 86.6518M75.2949 86.526L75.4642 86.1799L75.7482 86.4402L75.5531 86.6518M81.7524 88.5768L81.6693 88.3022C79.1105 89.0717 77.825 88.3509 75.7453 86.4402L75.3552 86.8635C77.432 88.7742 78.9441 89.721 81.8327 88.8514L81.7496 88.5768H81.7524ZM81.7524 88.5768L81.8356 88.8514L82.1684 88.7513L82.0077 88.4452L81.7524 88.5768ZM79.7699 81.1857L79.483 81.1743M79.483 81.1743C79.4228 82.7761 79.8473 84.2091 80.4526 85.562C81.0521 86.9035 80.8202 87.4155 81.5 88.7084L82.0106 88.4452C81.3049 87.1037 81.5685 86.6547 80.9804 85.3332C80.3952 84.026 80.0051 82.6817 80.0625 81.2L79.7756 81.1886L79.7699 81.1857L79.681 80.914L79.4916 80.9769L79.483 81.1743ZM74.5749 34.6308L74.6093 34.3476M74.5749 34.6308L74.5721 34.6365L74.5376 34.9197C74.2565 34.8854 74.0184 34.6794 73.8606 34.5107C73.6971 34.3305 73.5566 34.1159 73.4992 33.9586L74.0385 33.7584C74.0643 33.8242 74.1532 33.9758 74.2852 34.1188C74.4229 34.2704 74.5434 34.339 74.6093 34.3476M74.5749 34.6308L74.5405 34.914C85.8455 36.307 95.065 45.6031 95.3691 57.259L95.656 57.2504L95.6531 57.2532L95.9399 57.2447C95.6273 45.2856 86.1754 35.7721 74.6093 34.3476M79.9764 79.4724L80.0739 79.7412C89.6176 76.3231 96.2096 67.4875 95.9428 57.2447L95.3691 57.2618C95.6301 67.2387 89.2103 75.8655 79.8818 79.2035L79.9793 79.4724H79.9764ZM79.9764 79.4724L79.8789 79.2035M78.2295 82.6302L78.5048 82.5472M80.0166 87.4699L78.5048 82.5472C78.4503 82.3699 78.4303 82.0066 78.459 81.6119C78.4848 81.2143 78.5536 80.8596 78.6311 80.688L78.109 80.4535C77.9856 80.7223 77.9139 81.1657 77.8852 81.5747C77.8566 81.9837 77.868 82.4328 77.957 82.716L78.2323 82.633L78.2295 82.6302M80.0166 87.4699L79.7412 87.5528L79.4658 87.6358L77.9541 82.7131L78.2295 82.6302M80.0166 87.4699L80.1284 87.8331L79.7412 87.8389V87.5528M71.8498 90.539L72.0506 90.745C73.198 89.638 73.7172 88.0877 74.0414 86.6804C74.202 85.9796 74.3225 85.2874 74.4372 84.7068C74.5577 84.1118 74.6753 83.6427 74.8331 83.3281L74.3225 83.0707C74.1246 83.4654 73.9955 84.006 73.8779 84.5924C73.7574 85.1959 73.6455 85.8566 73.4849 86.5488C73.1665 87.9332 72.6759 89.3434 71.6547 90.3302L71.8555 90.5362L71.8498 90.539ZM71.8498 90.539L71.6174 90.7078M71.8498 90.539L72.0821 90.3703C71.3076 89.3205 70.8429 88.1821 70.4758 86.9607C70.2922 86.3486 70.1315 85.7222 69.968 85.0729C69.8045 84.4265 69.6353 83.7629 69.4345 83.085L69.1591 83.1651V83.1679M69.1591 83.1679L68.8837 83.248C69.0816 83.9116 69.2451 84.5666 69.4115 85.2131C69.575 85.8595 69.7385 86.5002 69.925 87.1238C70.3008 88.3766 70.7884 89.5837 71.6174 90.7078L71.8125 90.9709L72.0477 90.7421L71.8469 90.5362L71.8498 90.539M69.1591 83.1679L69.357 83.3739C68.9067 83.8029 68.5137 84.2634 68.135 84.7239C67.7564 85.1816 67.3863 85.6507 66.9962 86.0769C66.2073 86.9407 65.3009 87.6758 63.944 87.9676L63.8838 87.6873M69.1591 83.1679L68.9612 82.962C68.485 83.4168 68.0748 83.8945 67.6932 84.3607C67.306 84.8298 66.9532 85.2789 66.5745 85.6907C65.8258 86.5088 65.0198 87.1495 63.8236 87.407L63.8838 87.6873M69.1591 83.1679L69.4345 83.0878L69.2996 82.6388L68.9583 82.9648L69.1562 83.1708L69.1591 83.1679ZM63.8838 87.6873L63.617 87.5814L63.4191 88.0791L63.944 87.9647L63.8838 87.6844V87.6873ZM65.1919 80.0301L64.9193 80.1217C65.7598 82.6302 64.6612 84.9671 63.617 87.5843L64.1506 87.796C65.1632 85.2588 66.3852 82.6931 65.4615 79.9415L65.189 80.033L65.1919 80.0301ZM65.1919 80.0301L65.4644 79.9386L65.4185 79.8013L65.2808 79.7584L65.1919 80.0301ZM48.1928 58.9351L47.9059 58.9494C48.4223 69.0865 55.5076 77.2356 65.1029 80.3047L65.2808 79.7613C55.8834 76.7579 48.9845 68.7919 48.4825 58.9237L48.1957 58.938L48.1928 58.9351ZM48.1928 58.9351L48.4796 58.9208M67.5269 34.9397L67.4752 34.6594C55.8662 36.7846 47.3035 47.1019 47.9088 58.9494L48.4825 58.9208C47.8945 47.3708 56.242 37.2995 67.5814 35.2229L67.5297 34.9426L67.5269 34.9397ZM67.5269 34.9397L67.5785 35.22M72.4923 31.2098L72.2284 31.1011C71.365 33.1777 69.6697 34.2561 67.4752 34.6565L67.5785 35.2172C69.9164 34.7881 71.8039 33.6154 72.7591 31.3157L72.4952 31.207L72.4923 31.2098ZM72.4923 31.2098L72.7563 31.3185M83.9723 20.967L83.9006 20.6895C78.8433 21.9767 74.4114 25.8381 72.2256 31.1011L72.7534 31.3185C74.8761 26.21 79.1675 22.4829 84.0412 21.2415L83.9695 20.9641L83.9723 20.967ZM83.9723 20.967L84.044 21.2444M107.337 55.5885C107.113 52.9341 107.147 50.2769 107.182 47.6253C107.213 44.9795 107.242 42.3394 106.995 39.7451C106.499 34.5421 104.898 29.5079 100.019 24.8742L99.623 25.2861C104.376 29.7997 105.937 34.6909 106.422 39.7966C106.665 42.3566 106.637 44.9652 106.605 47.6167C106.574 50.2626 106.536 52.9484 106.763 55.6343C107.431 63.5088 111.803 70.7026 118.914 74.1721L119.04 73.9147V73.9176M119.04 73.9176L118.914 74.175M119.04 73.9176L119.167 73.6601M106.763 55.6343L107.337 55.5885M107.337 55.5885C107.991 63.2886 112.259 70.2907 119.167 73.6601M119.167 73.6601C129.567 76.3164 139.379 77.5169 142.921 66.8164L142.984 66.6276M119.042 73.9178C112.035 70.4997 107.712 63.4004 107.052 55.6117C106.148 44.934 109.456 34.2278 99.823 25.0832C95.5948 21.0702 89.8778 19.4627 83.9772 20.9672C79.0117 22.2315 74.6515 26.0272 72.4972 31.213C71.5879 33.4011 69.7979 34.5252 67.5288 34.94C56.0546 37.0423 47.5981 47.2337 48.1976 58.9354C48.7082 68.938 55.6989 76.9956 65.1967 80.0332C66.0773 82.6648 64.9185 85.1161 63.8915 87.6904C66.4445 87.1383 67.3166 84.9359 69.1668 83.171C69.9614 85.8512 70.2511 88.3683 71.8575 90.5421C74.029 88.4484 73.8741 84.6241 74.5826 83.2054C74.9355 82.4989 77.5917 87.5874 79.7489 87.5559L78.2372 82.6333C78.0937 82.1728 78.1769 81.0115 78.3749 80.571C78.5757 80.1334 79.3616 79.6986 79.9841 79.4755C89.4217 76.0974 95.9247 67.3677 95.6637 57.2564C95.3567 45.4489 86.0196 36.0441 74.5855 34.6339C74.2413 34.591 73.8626 34.0819 73.7794 33.8588C72.7754 31.15 95.744 35.9268 97.2012 56.1179C98.0331 67.6137 90.6752 77.6077 79.7776 81.1888C79.6628 84.2723 80.3746 85.9427 81.7601 88.5799C79.0379 89.4009 77.6376 88.5656 75.5608 86.6549C74.4277 88.9661 74.0778 90.5032 71.8116 91.9648C69.9843 90.4431 69.2959 88.9861 68.2632 86.7436C66.1548 88.5799 64.7782 89.9408 62.0158 89.0913C62.9137 87.6497 65.409 81.7723 63.2948 80.9943C53.2778 77.3045 46.3388 68.037 46.5769 57.2592C46.8408 45.3316 55.6186 35.6951 67.1961 33.384C69.1295 32.9978 70.4691 32.0482 71.2121 30.2605C73.7307 24.2137 79.1608 20.1349 85.2049 19.1366C98.4204 16.9513 108.351 29.0706 108.437 41.1812L108.532 54.4961C108.609 65.2539 118.469 76.5923 130.617 73.8034C136.044 72.5592 141.018 68.4432 142.929 62.6166C130.525 62.4307 120.336 53.5322 118.406 41.8534C116.403 29.7542 123.414 18.1612 135.204 14.2311C135.637 10.9475 133.922 8.45609 132.43 5.4842C135.256 4.76053 137.659 6.37662 139.722 8.27303C140.663 5.76451 141.42 3.49913 143.308 1.70569M3.94788 11.0658L4.15153 11.2689M3.94788 11.0658L3.7442 10.8598H3.74707L3.95073 11.0629M3.95073 11.0629L4.15441 11.2689H4.15153L3.72125 10.8913L3.94788 11.0658M8.31382 7.3788L8.26505 7.09848L8.73836 7.01554L8.58633 7.47033L8.31382 7.3788M3.95073 11.0629L4.17736 11.2374C4.75681 10.4937 5.32478 9.68423 6.00176 9.00633C6.67587 8.33415 7.43316 7.81929 8.36258 7.65625L8.31382 7.37593V7.3788M6.97421 15.3077L7.24957 15.2276C6.85945 13.9147 6.95986 12.6618 7.2754 11.3919C7.59668 10.1047 8.12449 8.84901 8.58346 7.47033L8.03843 7.28726C7.59667 8.60874 7.04304 9.9388 6.71603 11.2517C6.38327 12.5818 6.26566 13.9433 6.69595 15.3878L6.97133 15.3077H6.97421ZM6.97421 15.3077L6.69881 15.3878L6.74185 15.5336L6.88815 15.5794L6.97421 15.3077ZM3.66102 60.8672L3.70117 61.1503C15.6057 59.4599 24.6703 49.3057 24.3347 37.175L23.761 37.1921C24.088 49.0168 15.25 58.9336 3.61799 60.584L3.65815 60.8672H3.66102ZM3.66102 60.8672L3.62086 60.584L3.66388 60.8672H3.66102ZM2.80331 61.6881L3.0787 61.771C3.09878 61.7052 3.05862 61.6881 3.10165 61.7453C3.13607 61.7911 3.19917 61.8511 3.29097 61.9112C3.47742 62.037 3.70404 62.1057 3.86468 62.0857M2.80331 61.6881L2.52794 61.6051C2.4677 61.8025 2.56236 61.977 2.63694 62.0828C2.723 62.1972 2.84061 62.3031 2.97256 62.3889C3.22499 62.5548 3.58929 62.6949 3.93352 62.652C16.1249 61.1275 26.1104 50.4612 25.9727 37.7528H25.6858L25.6887 37.7556H25.4018C25.5366 50.1609 15.7807 60.5926 3.86468 62.0857M3.86468 62.0857L3.93352 62.652M3.0787 61.771C3.08443 61.751 3.11025 61.6995 3.16475 61.6223C3.21638 61.5508 3.28237 61.4736 3.35695 61.3992C3.43154 61.3248 3.50898 61.2619 3.57782 61.2161C3.61224 61.1932 3.64093 61.1761 3.66675 61.1646C3.67822 61.1589 3.68684 61.1561 3.69544 61.1532C3.69831 61.1532 3.70117 61.1532 3.70404 61.1532L3.61799 60.5869C3.48316 60.6069 3.35694 60.6727 3.25654 60.7413C3.15041 60.8128 3.04427 60.9015 2.94961 60.9959C2.85494 61.0903 2.76603 61.1904 2.69432 61.2905C2.62547 61.3849 2.55949 61.4964 2.52507 61.608L2.80045 61.6909L2.80331 61.6881M8.35685 14.1807L8.26505 14.4524M8.26505 14.4524C18.4427 17.8619 25.2842 27.0751 25.4018 37.7585H25.6887L25.9755 37.7528C25.8579 26.8205 18.8529 17.3957 8.44865 13.909L8.35685 14.1807L8.08146 14.2579L8.12163 14.4038L8.26505 14.4524ZM10.9414 5.55676L10.7836 5.79417C10.6918 5.7341 10.7005 5.64543 10.7005 5.67404C10.7005 5.69406 10.6947 5.73982 10.6689 5.82563C10.6201 5.99153 10.5197 6.22894 10.3821 6.53214C10.2444 6.83247 10.0723 7.18144 9.8829 7.57044C9.6936 7.95945 9.48993 8.38278 9.28626 8.82899C8.8818 9.7157 8.47732 10.6939 8.22776 11.6293C7.9782 12.5589 7.86632 13.4828 8.08434 14.2551L8.63509 14.1006C8.46011 13.4799 8.54043 12.6761 8.78139 11.778C9.01948 10.8884 9.40674 9.94452 9.8083 9.0664C10.0091 8.62876 10.2099 8.2083 10.3993 7.81929C10.5857 7.43315 10.7607 7.0756 10.9041 6.76954C11.0447 6.46635 11.1594 6.19748 11.2197 5.98581C11.2512 5.88284 11.2742 5.77414 11.2742 5.67689C11.2742 5.58822 11.2541 5.41661 11.0992 5.31649L10.9414 5.5539V5.55676ZM10.9414 5.55676L11.0992 5.31935M3.9278 8.27695L4.1286 8.48003C4.97195 7.65053 6.30582 6.73522 7.61676 6.15457C8.27079 5.86568 8.90761 5.66259 9.46411 5.5968C10.0263 5.52815 10.471 5.59681 10.7808 5.79989L11.0963 5.31935C10.6259 5.01043 10.0206 4.9475 9.3924 5.02473C8.76131 5.10196 8.06712 5.32507 7.38153 5.62827C6.01036 6.23466 4.61911 7.19002 3.72412 8.071L3.92492 8.27409L3.9278 8.27695L3.65528 8.36847L3.80158 8.80039L4.1286 8.48003M0 64.64L0.181458 64.3425L0.64903 64.7944M37.1457 54.4257C37.0797 61.322 33.7837 67.752 28.3478 71.9653L27.9979 71.5134C33.299 67.403 36.5118 61.136 36.5749 54.4228H36.8617L36.8588 54.4257H37.1457L37.2719 41.1537H36.9851V41.1508M36.9851 41.1508H36.6982L36.572 54.42H36.8588L37.1457 54.4257M36.9851 41.1508H37.2719M56.4913 20.6822C44.974 20.2561 37.3723 30.7049 37.2748 41.1537L36.9879 41.148H36.7011C36.8015 30.4846 44.5724 19.6668 56.5142 20.1102C61.408 20.2932 66.6087 23.2451 69.3596 27.1266L69.1244 27.2925V27.2896M69.1244 27.2896L69.3596 27.1237C69.374 27.1438 69.4256 27.1867 69.5432 27.2238C69.6551 27.261 69.7899 27.2782 69.9276 27.2782C70.0653 27.2782 70.1829 27.261 70.2517 27.2353C70.289 27.221 70.2948 27.2153 70.289 27.221C70.2776 27.2296 70.2431 27.2696 70.2431 27.3354M69.1244 27.2896L68.8892 27.4555M56.5142 20.1102L56.4913 20.6822M70.2431 27.3354H70.53V27.3383H70.8168C70.8168 27.4755 70.748 27.5814 70.6734 27.6472C70.6017 27.7101 70.5185 27.7501 70.4439 27.7759C70.2919 27.8302 70.1083 27.8531 69.9276 27.8531C69.7469 27.8531 69.5489 27.8274 69.3711 27.773C69.2018 27.7187 69.0097 27.6243 68.8892 27.4555C66.2358 23.7142 61.1957 20.8567 56.4913 20.6822M70.2431 27.3354C70.2431 27.1838 70.2603 27.0408 70.2431 26.8434C70.2259 26.6575 70.1829 26.4916 70.0882 26.3657L70.3177 26.1941H70.3206L70.5501 26.0225C70.7365 26.2685 70.7968 26.5602 70.8168 26.7948C70.8341 27.0179 70.8168 27.2582 70.8168 27.3354H70.2431ZM41.6637 24.6781C49.6497 15.8454 63.6799 16.8894 70.5501 26.0254L70.0911 26.3686C63.4274 17.5101 49.8247 16.5033 42.0882 25.0614C38.1239 29.4463 35.7487 34.8438 35.6971 40.942L35.5852 53.5333H35.2983V53.5304H35.0115M35.6971 40.942H35.4102L35.1234 40.9363L35.0115 53.5304M28.0638 69.7571L27.8745 69.5426C23.675 73.2439 18.3222 74.8399 12.7371 73.4012L12.6654 73.6786H12.6626L12.5908 73.9561C18.3825 75.4492 23.9274 73.7845 28.2532 69.9716C32.9547 65.827 35.5307 59.8231 35.5852 53.5361H35.2983L35.0115 53.5304M35.0115 53.5304C34.957 59.663 32.4441 65.5124 27.8716 69.5397L28.061 69.7542L28.0638 69.7571M42.0882 25.0614L41.6637 24.6781M41.6637 24.6781C37.6161 29.1546 35.1779 34.6836 35.1262 40.9392H35.4131L35.4102 40.942M28.0638 69.7571L28.2532 69.9716M0.181458 62.9838C0.52568 63.4615 0.86705 64.0221 1.23996 64.64C1.61 65.2578 2.01159 65.93 2.46769 66.6222C4.29783 69.4081 7.03157 72.5202 12.5937 73.9532L12.7371 73.3983C7.35858 72.0111 4.73098 69.0191 2.94674 66.3075C2.49924 65.6268 2.10625 64.9632 1.73334 64.3425C1.3633 63.7246 1.0076 63.1469 0.64903 62.6463M0.499865 3.94925C1.18545 4.58711 1.64155 5.50814 1.96856 6.46063C2.29845 7.41884 2.51072 8.43998 2.69717 9.29237C2.79183 9.72142 2.87789 10.1076 2.96682 10.4279C3.05861 10.754 3.14754 10.9857 3.23646 11.1258C3.27949 11.1945 3.31105 11.2202 3.32826 11.2317C3.33686 11.2345 3.33686 11.2345 3.3426 11.2345C3.38276 11.2288 3.50898 11.1659 3.72699 10.8856L3.9536 11.0601L4.18023 11.2345L3.74995 10.857L3.9536 11.0601M3.9536 11.0601H3.95934L4.18596 11.2345C3.95934 11.5263 3.71839 11.7494 3.44588 11.798C3.11886 11.8552 2.89224 11.6464 2.75455 11.4319C2.61686 11.2145 2.51072 10.9142 2.41606 10.5795C2.3214 10.242 2.22961 9.84156 2.13782 9.4125M3.95373 11.0619H3.94513C5.07821 9.60022 6.28873 7.72956 8.3082 7.37488C7.4046 10.075 6.14818 12.5464 6.96859 15.3037C16.7073 18.35 23.7611 26.9253 24.0451 37.1796C24.375 49.1559 15.4222 59.1928 3.6554 60.8632C3.36855 60.9062 2.87803 61.4239 2.79771 61.6842C2.71739 61.9445 3.38576 62.4279 3.8935 62.3649C15.9501 60.8575 25.8179 50.3086 25.6831 37.7517C25.5655 26.9453 18.6408 17.6263 8.35123 14.1768C7.57098 11.3965 11.4407 5.88749 10.9358 5.55569M35.2956 53.5351L35.4075 40.941C35.462 34.7626 37.8658 29.2994 41.8732 24.8687C49.7359 16.1733 63.5509 17.1973 70.3178 26.1959C70.599 26.5678 70.5273 27.1084 70.5273 27.3372C70.5273 27.6289 69.3913 27.6747 69.1217 27.2914C66.4195 23.4786 61.2991 20.5753 56.5 20.3951C44.7705 19.9604 37.0827 30.5923 36.9852 41.1498L36.859 54.4218C36.7959 61.2294 33.54 67.5765 28.173 71.7383C23.4427 75.4052 17.6913 76.6752 11.6673 75.0448C6.69034 73.6976 2.42324 70.011 0.162811 64.7451M0 63.4273C1.33334 66.7607 5.4 73.7273 11 74.9273C15.1667 76.9273 25.5 77.9273 33.5 65.9273C35.1667 62.4273 38.1 52.4273 36.5 40.4273C37.5 33.594 42.8 19.1272 56 19.9272C58.8333 19.4272 65.6 19.6273 72 28.4273L71 32.9273C66 33.094 55.2 36.5273 50 46.9273C43.5 59.9273 51.5 71.9273 52.5 72.4273C53.5 72.9273 57.5 79.4273 64 80.9273C64.8333 81.4273 64.6703 83.6291 61.0703 89.6291C63.237 88.9624 68.4837 86.9924 68.8837 84.5924C69.217 87.0924 70.3512 91.453 71.9512 91.453C73.5512 91.453 74.7493 87.2775 75.0827 84.9442C76.0827 86.2775 78.7 89.5273 81.5 89.9273C80.3848 87.4273 78.3889 82.1273 79.3272 80.9273C83.5515 79.5939 92.6 74.8273 95 66.4273C96 64.2607 97.7 58.8273 96.5 54.4273L96.4043 54.0764C94.9773 48.8404 94.4353 46.8518 91.5 43.4273C89.1 40.6273 84.8333 37.594 83 36.4273L71.5 32.9273C73 28.2606 78.5 18.9272 92.5 20.9273C97.1667 22.4273 106.7 27.7273 107.5 36.9273C108.3 46.1273 108.167 55.094 108 58.4273C108.833 61.9273 111.9 69.8273 117.5 73.4273C123.1 77.0273 128.5 75.2606 131.5 74.4273C135 72.9273 141.497 68.8163 143.497 63.3164M0 63.4273L0.5 1.31641C1.83333 2.64974 4.5 5.81641 4.5 7.81641C5.83333 6.64974 9.1 4.51641 11.5 5.31641C10.3333 7.48307 8.1 12.3164 8.5 14.3164C15 16.1497 27.7 23.5164 26.5 38.3164C25.3 53.1164 14.3333 59.8164 9 61.3164C7 62.0201 2.6 63.4273 1 63.4273H0V99.3164H143.497V63.3164M143.497 63.3164V1.31641C142.164 2.81641 139.597 6.21641 139.997 7.81641C138.497 6.64974 134.897 4.51641 132.497 5.31641C133.83 7.48307 136.197 12.2164 134.997 13.8164C133.497 15.8164 121.497 18.3164 118.497 33.8164C116.097 46.2164 124.497 55.3904 128.997 58.4273C131.33 60.057 138.697 63.7164 143.497 63.3164ZM71.2044 30.2545L71.4683 30.3632C73.9467 24.4108 79.2966 20.3949 85.2431 19.4109L85.1513 18.8446C79.0126 19.8571 73.4963 24.0018 70.9405 30.1401L71.2044 30.2488V30.2545ZM97.1906 56.1177L96.9038 56.1377C97.7242 67.4933 90.461 77.3729 79.6781 80.9168L79.8559 81.4603C90.8655 77.842 98.3151 67.7364 97.4746 56.0977L97.1878 56.1177H97.1906ZM73.7689 33.8556L74.0385 33.7555C74.0213 33.7098 74.0242 33.6869 74.0242 33.6783C74.0242 33.6726 74.027 33.6611 74.05 33.6411C74.1016 33.5925 74.2278 33.5267 74.4745 33.4867C74.9593 33.4066 75.7424 33.4409 76.7464 33.6297C78.7458 34.0044 81.5369 34.9683 84.4112 36.6416C90.1541 39.9882 96.1838 46.158 96.9038 56.132L97.4775 56.0919C96.7403 45.8748 90.5557 39.5592 84.7009 36.1468C81.775 34.442 78.9208 33.4552 76.8526 33.0662C75.8227 32.8717 74.9622 32.8231 74.3799 32.9203C74.093 32.9689 73.8291 33.0576 73.6512 33.2264C73.5595 33.315 73.4906 33.4295 73.4619 33.5639C73.4361 33.6955 73.4533 33.827 73.4992 33.95L73.7689 33.8499V33.8556ZM78.6282 80.6852C78.6913 80.545 78.8778 80.3648 79.1675 80.1789C79.4457 80.0015 79.7785 79.8471 80.0711 79.7412L79.876 79.2035C79.549 79.3208 79.1761 79.4952 78.8577 79.6983C78.5479 79.8957 78.2409 80.1503 78.1061 80.4506L78.6282 80.6852ZM74.5749 83.2022L74.8302 83.331C74.8159 83.3596 74.7642 83.4196 74.6782 83.4225C74.6266 83.4225 74.6122 83.4025 74.6524 83.4282C74.727 83.4768 74.8446 83.5884 75.0109 83.7772C75.3408 84.1519 75.7568 84.7011 76.2588 85.3075C76.7493 85.8995 77.3087 86.5288 77.8881 87.0094C78.459 87.4813 79.0986 87.8503 79.7441 87.8417V87.5557L79.7355 87.2697C79.3023 87.2754 78.8003 87.0208 78.2553 86.5689C77.7189 86.1255 77.1882 85.5306 76.7005 84.9442C76.2243 84.3721 75.774 83.78 75.4412 83.4025C75.2748 83.2137 75.1113 83.0449 74.965 82.9505C74.8962 82.9048 74.7843 82.8476 74.6552 82.8533C74.4889 82.859 74.3741 82.962 74.3168 83.0793L74.5721 83.208L74.5749 83.2022ZM99.821 25.083L100.019 24.877C95.7219 20.7982 89.9045 19.1621 83.9035 20.6924L84.0469 21.2473C89.85 19.7685 95.4666 21.3474 99.623 25.2946L99.821 25.0887V25.083ZM24.0507 37.1835L24.3376 37.175C24.0479 26.7891 16.9052 18.1137 7.06026 15.0331L6.88815 15.5765C16.5208 18.5885 23.4828 27.0637 23.7639 37.1893L24.0507 37.1807V37.1835ZM11.67 75.043L11.7446 74.7656C6.85086 73.4412 2.3673 69.7542 0.144165 64.5713L0.181458 64.9189C2.47344 70.2649 6.53244 73.9446 11.5926 75.3147L11.6672 75.0373L11.67 75.043ZM28.1729 71.7365L27.9979 71.5105C23.3365 75.1231 17.6768 76.3731 11.7446 74.7684L11.5954 75.3233C17.7083 76.9795 23.5516 75.6866 28.3507 71.9653L28.1757 71.7393L28.1729 71.7365Z" stroke="#D3E1F2" stroke-linecap="round"/>
</g>
</g>
<defs>
<clipPath id="clip0_428_5200">
<rect width="144" height="99" fill="white"/>
</clipPath>
<clipPath id="clip1_428_5200">
<rect width="145" height="100" fill="white" transform="translate(-0.5)"/>
</clipPath>
</defs>
</svg>
