<svg width="179" height="57" viewBox="0 0 179 57" fill="none" xmlns="http://www.w3.org/2000/svg">
<path d="M0 1.13421H40.4658V54.7716H30.7336V10.1348H9.73229V54.7716H0V1.13421Z" fill="white"/>
<path d="M81.4805 1.13421V54.7716H71.8945V12.1471L52.6495 54.7716H42.1489L66.4064 1.09763H76.907V1.13421H81.4805Z" fill="white"/>
<path d="M110.641 0.841514C112.616 0.841514 114.592 1.10982 116.568 1.64644C118.544 2.18306 120.434 2.97579 122.239 4.02463C124.068 5.07347 125.764 6.37843 127.325 7.9395C128.886 9.47618 130.24 11.2446 131.386 13.2447C132.532 15.2448 133.435 17.4889 134.093 19.9768C134.752 22.4404 135.081 25.1113 135.081 27.9895C135.081 30.9165 134.752 33.624 134.093 36.1119C133.435 38.5999 132.532 40.8439 131.386 42.844C130.24 44.8442 128.886 46.6125 127.325 48.1492C125.764 49.6859 124.068 50.9665 122.239 51.9909C120.434 53.0154 118.544 53.7959 116.568 54.3325C114.592 54.8447 112.616 55.1009 110.641 55.1009C108.665 55.1009 106.677 54.8447 104.677 54.3325C102.701 53.7959 100.799 53.0154 98.9693 51.9909C97.1644 50.9665 95.4813 49.6859 93.9203 48.1492C92.3592 46.6125 91.0054 44.8442 89.859 42.844C88.7126 40.8439 87.8101 38.5999 87.1516 36.1119C86.493 33.624 86.1637 30.9165 86.1637 27.9895C86.1637 25.0869 86.493 22.4038 87.1516 19.9402C87.8101 17.4767 88.7126 15.2448 89.859 13.2447C91.0054 11.2446 92.3592 9.47618 93.9203 7.9395C95.4813 6.37843 97.1644 5.07347 98.9693 4.02463C100.799 2.97579 102.701 2.18306 104.677 1.64644C106.677 1.10982 108.665 0.841514 110.641 0.841514ZM110.641 47.5638C112.568 47.5394 114.397 47.1126 116.129 46.2833C117.861 45.4296 119.373 44.1856 120.666 42.5513C121.983 40.8927 123.02 38.856 123.776 36.4412C124.556 34.002 124.947 31.1848 124.947 27.9895C124.947 24.7698 124.556 21.9525 123.776 19.5378C123.02 17.0986 121.983 15.0619 120.666 13.4276C119.373 11.7934 117.861 10.5616 116.129 9.73229C114.397 8.87858 112.568 8.43953 110.641 8.41514C108.714 8.43953 106.872 8.87858 105.116 9.73229C103.384 10.5616 101.86 11.7934 100.543 13.4276C99.2255 15.0619 98.1766 17.0986 97.3961 19.5378C96.6155 21.9525 96.2253 24.7698 96.2253 27.9895C96.2253 31.1848 96.6155 34.002 97.3961 36.4412C98.1766 38.856 99.2255 40.8927 100.543 42.5513C101.86 44.1856 103.384 45.4296 105.116 46.2833C106.872 47.1126 108.714 47.5394 110.641 47.5638Z" fill="white"/>
<path d="M169.839 23.5258C171.474 24.6966 172.705 26.0747 173.535 27.6602C174.388 29.2213 174.852 30.5506 174.925 31.6482C175.023 32.7215 175.071 33.4532 175.071 33.8435C175.071 35.2338 174.852 36.7461 174.413 38.3803C173.998 40.0146 173.279 41.7098 172.254 43.466C171.23 45.2222 169.974 46.8809 168.486 48.4419C166.998 50.003 165.315 51.3689 163.437 52.5397C161.583 53.7105 159.558 54.6374 157.363 55.3204C155.192 56.0034 152.912 56.3448 150.521 56.3448C149.155 56.3448 147.741 56.1009 146.277 55.6131C144.814 55.1253 143.448 54.3935 142.179 53.4178C140.935 52.4178 139.85 51.1616 138.923 49.6493C138.02 48.137 137.447 46.6491 137.203 45.1856C136.984 43.6977 136.874 42.4416 136.874 41.4171C136.874 40.1487 137.033 38.5023 137.35 36.4778C137.667 34.4289 138.545 31.819 139.984 28.6481C140.569 27.3309 141.204 25.9284 141.887 24.4405C142.57 22.9282 143.252 21.3915 143.935 19.8305C144.643 18.2694 145.35 16.7205 146.058 15.1838C146.765 13.6472 147.436 12.1715 148.07 10.7567C149.582 7.43947 151.094 4.1222 152.607 0.804926C153.412 0.658576 154.302 0.524422 155.278 0.402463C156.107 0.280505 157.07 0.182938 158.168 0.109763C159.266 0.0365876 160.436 0 161.68 0C162.949 0 164.242 0.0609793 165.559 0.182938C166.9 0.304896 168.205 0.524422 169.474 0.841514C170.766 1.15861 171.974 1.58546 173.096 2.12208C174.242 2.6587 175.23 3.35386 176.059 4.20757C176.913 5.03689 177.584 6.04914 178.072 7.24434C178.584 8.41514 178.84 9.79327 178.84 11.3787C178.84 12.5251 178.584 13.6594 178.072 14.7814C177.584 15.879 176.913 16.94 176.059 17.9645C175.23 18.9889 174.279 19.9768 173.206 20.9281C172.132 21.855 171.01 22.7209 169.839 23.5258ZM151.436 47.9663C152.753 47.9663 154.046 47.698 155.314 47.1614C156.607 46.6247 157.814 45.9174 158.936 45.0393C160.058 44.1368 161.071 43.1245 161.973 42.0025C162.876 40.8561 163.62 39.6975 164.205 38.5267C164.815 37.3559 165.193 36.3558 165.339 35.5265C165.51 34.6972 165.595 34.0508 165.595 33.5874C165.595 33.0264 165.498 32.4044 165.303 31.7214C165.107 31.0384 164.62 30.4287 163.839 29.892C163.083 29.3554 161.998 29.0871 160.583 29.0871C159.168 29.0871 157.4 29.4164 155.278 30.075L152.68 24.1112C155.851 22.477 158.692 20.8793 161.205 19.3182C162.278 18.6597 163.315 17.9767 164.315 17.2693C165.339 16.5376 166.242 15.818 167.022 15.1107C167.827 14.4033 168.474 13.7203 168.961 13.0618C169.449 12.4032 169.693 11.8056 169.693 11.269C169.693 10.6104 169.425 10.0738 168.888 9.65912C168.376 9.22007 167.717 8.86638 166.912 8.59808C166.132 8.32977 165.266 8.14683 164.315 8.04926C163.363 7.9273 162.449 7.86632 161.571 7.86632C161.107 7.86632 160.68 7.87852 160.29 7.90291C159.9 7.9273 159.534 7.96389 159.192 8.01268L151.802 23.8551C150.021 27.5626 148.606 30.9043 147.558 33.8801C146.533 36.8559 145.984 38.9292 145.911 40.1C145.862 41.2464 145.838 41.9293 145.838 42.1489C145.838 43.9051 146.253 45.3198 147.082 46.393C147.936 47.4419 149.387 47.9663 151.436 47.9663Z" fill="white"/>
</svg>
